<?xml version="1.0" encoding="iso-8859-1"?>
<!-- Generator: Adobe Illustrator 19.0.0, SVG Export Plug-In . SVG Version: 6.00 Build 0)  -->
<svg version="1.1" id="Capa_1" xmlns="http://www.w3.org/2000/svg" xmlns:xlink="http://www.w3.org/1999/xlink" x="0px"
	y="0px" viewBox="0 0 511.999 511.999" style="enable-background:new 0 0 511.999 511.999;" xml:space="preserve">
	<g>
		<g>
			<path style="fill:#ffffff;" d="M480.505,341.475c-4.067-57.514-18.122-107.935-41.775-149.862c-0.969-1.717-1.964-3.41-2.965-5.099
			c62.707-57.637,35.622-162.773,34.387-167.4L465.057,0L322.166,84.436l0.489,0.827c-42.841-16.59-90.479-16.589-133.319,0
			l0.489-0.827L46.934,0l-5.098,19.114c-1.234,4.627-28.321,109.762,34.386,167.4c-1,1.688-1.996,3.382-2.964,5.098
			c-23.652,41.927-37.707,92.348-41.774,149.862l-1.026,14.635l14.607,1.361c27.537,2.566,87.718,15.448,97.971,38.885
			c2.271,5.194,4.57,11.031,7.002,17.212c8.084,20.542,17.247,43.824,32.636,62.968c18.917,23.532,43.586,35.464,73.32,35.464
			c29.735,0,54.404-11.932,73.321-35.465c15.391-19.145,24.553-42.427,32.637-62.969c2.432-6.18,4.729-12.017,7-17.21
			c10.254-23.437,70.434-36.318,97.964-38.884l14.624-1.347L480.505,341.475z M444.863,46.784
			c3.908,28.622,5.708,81.506-26.088,114.399c-15.745-20.778-34.305-38.855-55.46-53.971c-3.19-2.279-6.436-4.44-9.729-6.492
			L444.863,46.784z M67.169,46.81l91.235,53.912c-3.293,2.052-6.539,4.213-9.729,6.492c-21.153,15.114-39.711,33.188-55.455,53.964
			C61.58,128.374,63.314,75.459,67.169,46.81z M207.613,459.581c-0.519-0.61-1.041-1.208-1.552-1.844
			c-12.528-15.583-20.801-36.607-28.101-55.157c-2.538-6.449-4.936-12.541-7.433-18.25c-9.015-20.607-33.017-36.441-71.339-47.061
			c-13.851-3.839-27.016-6.286-36.553-7.759c0.757-7.37,1.708-14.572,2.818-21.634c11.251,1.285,38.041,5.48,65.745,18.106
			c42.228,19.247,67.872,49.185,76.416,89.103V459.581z M275.33,479.323c-5.956,1.78-12.364,2.671-19.335,2.671
			c-6.596,0.001-12.694-0.784-18.377-2.376v-37.495h37.712V479.323z M237.613,412.119c-9.796-50.716-42.042-89.769-93.973-113.439
			c-29.513-13.451-57.885-18.497-72.302-20.318c15.532-63.566,47.256-112.779,94.78-146.735c53.758-38.409,125.994-38.41,179.752,0
			c47.625,34.028,79.382,83.375,94.878,147.136c-15.126,2.115-41.714,7.341-69.307,19.918
			c-51.932,23.67-84.177,62.722-93.972,113.439H237.613z M412.804,337.27c-38.322,10.62-62.324,26.452-71.34,47.061
			c-2.497,5.708-4.895,11.799-7.432,18.248c-7.3,18.55-15.573,39.574-28.102,55.158c-0.196,0.244-0.398,0.467-0.595,0.707v-30.387
			c5.417-46.185,31.574-80.409,77.776-101.718c25.567-11.793,50.734-16.381,63.487-18.071c1.083,6.938,2.015,14.009,2.758,21.243
			C439.819,330.984,426.655,333.431,412.804,337.27z" />
		</g>
	</g>
	<g>
		<g>

			<rect style="fill:#ffffff;" x="297.274" y="259.993"
				transform="matrix(0.7057 -0.7085 0.7085 0.7057 -100.1342 308.9211)" width="49.037" height="30.005" />
		</g>
	</g>
	<g>
		<g>

			<rect style="fill:#ffffff;" x="174.712" y="250.479"
				transform="matrix(0.7085 -0.7057 0.7057 0.7085 -138.7668 214.0426)" width="30.005" height="49.038" />
		</g>
	</g>
	<g>
	</g>
	<g>
	</g>
	<g>
	</g>
	<g>
	</g>
	<g>
	</g>
	<g>
	</g>
	<g>
	</g>
	<g>
	</g>
	<g>
	</g>
	<g>
	</g>
	<g>
	</g>
	<g>
	</g>
	<g>
	</g>
	<g>
	</g>
	<g>
	</g>
</svg>