<?xml version="1.0" encoding="iso-8859-1"?>
<!-- Generator: Adobe Illustrator 19.0.0, SVG Export Plug-In . SVG Version: 6.00 Build 0)  -->
<svg version="1.1" id="Capa_1" xmlns="http://www.w3.org/2000/svg" xmlns:xlink="http://www.w3.org/1999/xlink" x="0px"
	y="0px" viewBox="0 0 512 512" style="enable-background:new 0 0 512 512;" xml:space="preserve">
	<g>
		<g>
			<path style="fill:#8B0101;" d="M207.134,449.873c-5.499-54.798-37.903-95.346-96.339-120.516c-29.923-12.888-59.237-18.34-75.81-20.563
			c-1.539,10.621-2.71,21.515-3.5,32.68l-1.026,14.635l14.607,1.361c27.537,2.566,87.718,15.448,97.971,38.885
			c2.271,5.194,4.57,11.031,7.002,17.212c8.084,20.542,17.247,43.824,32.636,62.968c7.307,9.089,15.475,16.441,24.459,22.049
			L207.134,449.873L207.134,449.873z" />
		</g>
	</g>
	<g>
		<g>
			<path style="fill:#8B0101;" d="M435.766,186.513c62.707-57.637,35.622-162.773,34.387-167.4L465.058,0L322.167,84.436l0.489,0.827
			c-42.841-16.59-90.479-16.589-133.319,0l0.489-0.827L46.935,0l-5.098,19.114c-1.233,4.627-28.321,109.763,34.387,167.4
			c-1,1.688-1.996,3.382-2.964,5.098c-14.69,26.041-25.676,55.362-32.868,87.622c18.74,2.593,50.006,8.667,82.273,22.566
			c66.723,28.739,105.976,77.339,113.833,140.747h38.991c7.787-63.32,45.771-111.892,110.15-140.666
			c35.132-15.701,69.02-21.449,85.774-23.466c-7.195-31.936-18.116-60.983-32.681-86.804
			C437.762,189.894,436.767,188.202,435.766,186.513z M196.382,302.96l-34.604-34.744l21.259-21.174l34.604,34.744L196.382,302.96z
			 M315.144,302.96l-21.259-21.173l34.604-34.744l21.259,21.173L315.144,302.96z" />
		</g>
	</g>
	<g>
		<g>
			<path style="fill:#8B0101;" d="M480.506,341.475c-0.809-11.443-2.02-22.599-3.617-33.468c-13.91,1.582-46.638,6.659-79.764,21.608
			c-55.76,25.165-86.796,65.625-92.27,120.254v48.717c8.983-5.609,17.153-12.96,24.46-22.051
			c15.39-19.145,24.553-42.427,32.637-62.969c2.432-6.18,4.729-12.017,7-17.21c10.254-23.437,70.434-36.318,97.964-38.884
			l14.624-1.347L480.506,341.475z" />
		</g>
	</g>
	<g>
		<g>
			<path style="fill:#8B0101;"
				d="M237.139,510.275c6.036,1.148,12.324,1.725,18.856,1.725c6.532,0,12.819-0.577,18.855-1.725v-37.723h-37.711V510.275z" />
		</g>
	</g>
	<g>
	</g>
	<g>
	</g>
	<g>
	</g>
	<g>
	</g>
	<g>
	</g>
	<g>
	</g>
	<g>
	</g>
	<g>
	</g>
	<g>
	</g>
	<g>
	</g>
	<g>
	</g>
	<g>
	</g>
	<g>
	</g>
	<g>
	</g>
	<g>
	</g>
</svg>