<?xml version="1.0" standalone="no"?>
<!DOCTYPE svg PUBLIC "-//W3C//DTD SVG 20010904//EN"
 "http://www.w3.org/TR/2001/REC-SVG-20010904/DTD/svg10.dtd">
<svg version="1.0" xmlns="http://www.w3.org/2000/svg"
 width="762.000000pt" height="762.000000pt" viewBox="0 0 762.000000 762.000000"
 preserveAspectRatio="xMidYMid meet">
<metadata>
Created by potrace 1.11, written by Peter Selinger 2001-2013
</metadata>
<g transform="translate(0.000000,762.000000) scale(0.100000,-0.100000)"
fill="#000000" stroke="none">
<path d="M5407 6956 c-3 -7 1 -13 9 -13 7 0 10 5 7 11 -3 6 -2 7 2 3 5 -4 10
-14 11 -21 1 -11 -5 -12 -27 -6 -16 5 -28 5 -28 2 4 -23 -2 -42 -11 -37 -6 4
-7 11 -4 17 4 7 2 8 -5 4 -6 -4 -9 -11 -6 -16 4 -7 -30 -23 -46 -22 -3 1 -6
-6 -6 -14 0 -12 3 -12 16 0 11 9 22 11 36 5 19 -9 19 -9 -2 -5 -13 2 -29 -4
-39 -15 -9 -10 -20 -16 -24 -14 -4 3 -26 -8 -48 -25 -22 -16 -43 -26 -47 -22
-4 4 -5 2 -3 -3 3 -12 -41 -71 -50 -68 -4 2 -7 -3 -8 -10 -3 -32 -5 -37 -15
-37 -8 0 -7 6 2 18 12 15 12 16 -2 5 -9 -7 -18 -11 -20 -8 -3 2 -4 -11 -4 -30
1 -24 -2 -32 -12 -28 -10 4 -11 9 -3 18 8 10 8 15 -1 21 -7 4 -9 3 -5 -4 3 -6
2 -13 -4 -17 -7 -4 -7 -12 0 -25 8 -15 6 -17 -10 -13 -11 3 -17 10 -13 16 3 6
1 7 -6 3 -9 -6 -9 -11 1 -24 11 -13 10 -15 -4 -9 -12 4 -15 2 -11 -8 3 -8 10
-12 16 -8 5 3 7 1 3 -5 -3 -6 -19 -9 -34 -7 -15 2 -21 2 -14 -1 15 -7 16 -34
1 -34 -5 0 -7 6 -4 13 4 6 0 4 -8 -5 -8 -10 -18 -14 -22 -10 -5 4 -5 1 -1 -6
4 -7 11 -10 15 -8 4 3 8 -1 8 -9 0 -11 -5 -12 -20 -3 -14 7 -17 7 -13 -1 4 -6
2 -11 -3 -11 -6 0 -11 -5 -11 -11 0 -5 5 -7 12 -3 7 4 8 3 4 -5 -6 -9 -11 -9
-24 1 -14 12 -14 10 -3 -10 12 -22 11 -23 -7 -13 -17 9 -19 7 -14 -17 5 -24 4
-26 -12 -13 -15 13 -16 12 -6 -13 9 -25 8 -26 -10 -16 -11 6 -20 7 -19 3 4
-21 -2 -33 -13 -27 -7 5 -8 3 -3 -5 5 -9 10 -10 18 -2 19 19 28 12 10 -7 -12
-13 -22 -16 -30 -10 -9 7 -11 4 -8 -11 3 -14 -1 -21 -12 -21 -9 0 -13 -6 -9
-15 4 -11 0 -15 -11 -13 -12 2 -17 -4 -17 -24 -1 -14 -5 -30 -10 -35 -5 -4 -6
-3 -2 4 3 6 2 14 -3 17 -15 10 -6 -25 10 -35 10 -8 8 -9 -8 -4 -25 7 -29 -1
-13 -25 6 -10 10 -11 10 -2 0 6 8 12 18 12 10 0 24 -6 32 -12 8 -7 11 -9 7 -4
-3 5 1 15 11 22 15 12 15 15 2 23 -12 8 -10 10 7 8 12 0 19 -6 16 -12 -3 -5 0
-4 8 3 7 6 20 12 29 12 13 0 13 -1 0 -10 -9 -6 -10 -10 -3 -10 6 0 15 5 18 10
4 6 11 7 17 4 7 -5 8 -2 3 6 -5 8 -3 11 6 8 8 -3 13 -11 11 -17 -1 -7 2 -10 8
-6 6 3 7 11 4 17 -5 8 -1 9 12 4 10 -4 15 -4 11 0 -4 4 -1 14 6 23 11 14 10
14 -5 2 -10 -7 -18 -9 -18 -3 0 12 28 24 40 17 5 -3 11 -1 14 4 4 5 1 13 -5
17 -8 5 -9 3 -4 -6 5 -9 4 -11 -4 -6 -17 11 -3 26 17 19 15 -6 16 -5 2 12 -14
17 -14 18 10 5 21 -11 23 -11 14 1 -6 8 -11 21 -11 30 0 15 5 17 47 21 18 2
18 3 3 21 -16 17 -16 17 0 12 12 -5 15 -2 12 13 -2 15 2 19 20 16 18 -1 22 2
18 14 -5 11 -2 13 8 8 8 -4 6 -1 -4 7 -14 12 -15 16 -4 20 8 3 20 0 26 -6 9
-9 11 -8 5 6 -7 20 20 57 43 57 7 0 13 5 13 10 0 6 3 9 8 9 18 -3 22 2 13 20
-9 16 -8 18 11 13 14 -3 19 -1 14 6 -5 8 1 12 14 12 12 0 18 5 15 10 -4 6 -12
7 -18 3 -8 -5 -8 -2 0 9 7 8 9 19 5 23 -4 5 -1 5 6 1 7 -4 9 -12 6 -18 -5 -7
-2 -8 5 -4 7 5 10 14 7 21 -7 19 14 32 48 31 24 -1 30 -6 31 -26 l2 -24 -15
22 c-8 12 -19 22 -24 22 -5 0 -2 -7 6 -16 9 -8 14 -20 10 -25 -3 -5 -2 -9 3
-8 19 3 33 -2 33 -12 0 -5 -4 -7 -10 -4 -14 8 -13 -8 1 -22 8 -8 7 -11 -2 -10
-8 1 -15 -2 -16 -8 -3 -11 16 -14 32 -6 6 3 3 -1 -7 -11 -26 -23 -22 -29 9
-13 15 8 31 11 36 8 6 -3 7 -1 3 5 -4 7 -2 12 3 12 6 0 11 9 11 19 0 11 5 23
12 27 7 4 8 3 4 -4 -4 -7 -2 -12 5 -12 7 0 9 8 6 21 -5 17 -3 18 11 7 13 -11
15 -11 9 5 -5 13 -1 17 16 17 16 0 18 3 9 9 -10 6 -8 10 8 14 18 5 20 9 11 25
-8 15 -8 22 2 26 6 3 3 4 -9 1 -12 -3 -27 1 -34 10 -10 12 -10 15 0 15 9 0 9
4 -1 17 -8 10 -9 14 -2 10 6 -4 14 -3 18 3 3 5 0 10 -8 10 -7 0 -14 7 -14 15
0 11 4 12 14 3 11 -8 12 -7 7 5 -3 8 -12 18 -20 21 -17 6 -10 26 9 26 7 0 6
-4 -3 -10 -9 -6 -10 -10 -3 -10 22 0 24 19 3 30 -18 10 -19 13 -5 26 17 17 20
28 6 20 -17 -11 -18 19 -2 32 14 11 13 11 -7 2 -19 -9 -21 -14 -12 -33 10 -20
10 -20 -3 -5 -8 10 -16 16 -19 13 -2 -3 -5 2 -5 10 0 8 4 12 9 9 4 -3 8 2 8
10 0 19 -11 21 -28 4 -7 -7 -12 -8 -12 -2 0 15 -38 15 -43 0z m-135 -143 c-6
-2 -9 -10 -5 -16 3 -7 3 -9 -2 -5 -11 11 -47 -11 -39 -24 5 -7 2 -8 -6 -3 -10
6 -6 14 16 32 16 12 34 23 39 22 6 0 4 -3 -3 -6z m-76 -69 c-9 -8 -16 -20 -16
-26 0 -6 -3 -9 -6 -6 -8 9 14 48 27 48 6 0 3 -7 -5 -16z m358 -50 c3 -8 2 -12
-4 -9 -6 3 -10 10 -10 16 0 14 7 11 14 -7z m-639 -454 c3 -6 -1 -7 -9 -4 -18
7 -21 14 -7 14 6 0 13 -4 16 -10z m-85 -36 c0 -8 -19 -13 -24 -6 -3 5 1 9 9 9
8 0 15 -2 15 -3z"/>
<path d="M6175 6830 c-4 -6 -11 -7 -17 -4 -7 4 -8 2 -4 -4 4 -6 -1 -11 -11
-11 -42 -1 -54 -5 -49 -17 2 -6 -12 -20 -32 -30 -20 -11 -41 -23 -45 -29 -5
-6 -7 -3 -3 8 3 9 1 17 -4 17 -10 0 -14 -15 -11 -34 1 -5 -5 -4 -13 4 -12 9
-16 9 -16 1 0 -7 -5 -9 -12 -5 -8 5 -9 2 -5 -10 4 -10 3 -15 -3 -11 -6 3 -10
-2 -11 -12 0 -16 -1 -16 -8 2 -5 11 -6 24 -3 29 3 5 0 6 -7 2 -6 -4 -9 -11 -6
-15 6 -10 -20 -46 -34 -47 -6 -1 -17 -2 -23 -3 -9 -1 -8 -4 2 -11 8 -5 11 -10
6 -10 -5 0 -18 8 -28 17 -17 15 -18 15 -13 0 5 -12 2 -15 -14 -12 -12 2 -19 0
-16 -6 4 -5 10 -7 15 -4 5 3 12 0 16 -7 4 -7 4 -10 -1 -6 -11 11 -36 -12 -28
-25 3 -6 1 -7 -5 -3 -6 4 -10 12 -8 19 1 7 1 9 -1 5 -3 -5 -11 -8 -19 -8 -8 0
-14 -5 -14 -11 0 -5 5 -7 12 -3 7 4 8 3 4 -5 -6 -9 -12 -9 -24 1 -10 7 -14 9
-10 4 9 -11 -9 -46 -24 -46 -6 0 -5 7 3 18 13 15 12 16 -3 3 -10 -7 -18 -21
-18 -30 0 -14 -2 -14 -10 -1 -8 13 -10 12 -10 -4 0 -16 -2 -17 -17 -5 -15 13
-15 12 -3 -11 13 -24 12 -24 -5 -10 -15 12 -17 12 -10 1 6 -11 4 -13 -9 -8
-12 5 -22 -2 -35 -23 -10 -17 -21 -27 -26 -22 -4 4 -2 -4 5 -18 13 -24 12 -24
-5 -10 -17 14 -18 13 -13 -7 5 -20 4 -21 -14 -12 -15 8 -19 8 -14 0 4 -6 2
-11 -3 -11 -6 0 -11 -5 -11 -11 0 -5 5 -7 10 -4 6 3 10 1 10 -6 0 -7 -8 -9
-21 -6 -16 4 -18 3 -9 -8 9 -11 7 -12 -12 -8 -18 4 -20 2 -8 -6 8 -5 11 -13 7
-17 -3 -4 -12 -2 -20 4 -10 8 -13 6 -14 -9 -1 -12 3 -17 9 -13 7 5 8 2 4 -5
-5 -7 -15 -10 -23 -7 -11 4 -13 2 -9 -9 3 -9 0 -15 -9 -15 -18 0 -38 -37 -31
-55 4 -12 -22 -44 -31 -37 -1 1 -6 2 -10 2 -5 0 -1 -5 7 -10 13 -8 12 -10 -2
-10 -17 0 -22 -10 -19 -36 1 -11 -29 -42 -36 -36 -9 6 -33 1 -28 -7 3 -5 0
-13 -6 -17 -8 -5 -9 -3 -5 5 10 15 -25 11 -37 -4 -5 -6 -7 -4 -4 5 2 8 10 14
16 13 19 -5 12 11 -11 26 -21 13 -22 13 -10 -2 11 -13 10 -16 -8 -22 -18 -6
-19 -9 -8 -23 9 -12 6 -11 -10 2 -23 20 -27 27 -14 25 20 -3 32 2 26 12 -4 8
-9 7 -15 -2 -5 -8 -9 -10 -9 -5 0 5 -7 3 -16 -5 -13 -10 -17 -10 -25 2 -7 11
-9 9 -9 -8 0 -13 -5 -23 -11 -23 -6 0 -9 6 -6 14 6 14 -16 16 -29 3 -12 -12
-26 -8 -18 5 4 7 3 8 -5 4 -6 -4 -9 -11 -7 -15 7 -10 -26 -10 -40 0 -7 5 -11
3 -11 -6 0 -8 5 -11 10 -8 6 3 7 1 3 -6 -6 -9 -11 -9 -22 0 -7 6 -11 16 -8 21
3 5 -3 4 -15 -4 -12 -7 -21 -17 -21 -22 0 -4 6 -3 14 3 10 9 15 8 19 -2 4 -11
-3 -13 -31 -10 -20 2 -40 9 -44 16 -4 7 -8 8 -8 1 0 -5 5 -15 10 -22 6 -6 7
-10 4 -7 -4 3 -13 0 -20 -6 -8 -7 -14 -6 -20 2 -4 8 -3 9 4 5 7 -4 12 -2 12 3
0 16 -20 14 -26 -2 -3 -8 -19 -13 -43 -12 -24 1 -38 -3 -38 -11 0 -10 5 -10
20 -3 14 8 22 7 31 -2 8 -9 8 -10 -1 -5 -7 4 -23 2 -35 -5 -16 -9 -23 -9 -26
0 -7 21 -20 11 -14 -11 5 -22 5 -22 -12 -5 -19 19 -31 23 -21 7 3 -5 -5 -15
-19 -21 -14 -7 -23 -16 -19 -22 3 -6 1 -7 -6 -3 -9 6 -9 11 -1 21 8 9 8 15 0
20 -6 4 -9 1 -8 -7 2 -7 -3 -12 -10 -10 -8 1 -11 -2 -7 -8 3 -5 -1 -10 -10
-10 -12 0 -15 -5 -11 -17 5 -15 3 -14 -10 2 -16 20 -16 20 -12 -1 3 -13 0 -21
-8 -21 -7 0 -11 4 -8 8 2 4 -1 11 -7 15 -8 4 -9 3 -5 -4 4 -7 3 -12 -3 -12 -6
0 -7 -8 -4 -17 6 -17 6 -17 -11 0 -14 14 -21 15 -32 6 -8 -6 -11 -15 -8 -20 3
-5 0 -9 -5 -9 -25 0 -52 -20 -44 -32 2 -4 -3 -5 -11 -2 -9 3 -16 10 -16 15 0
18 -16 8 -17 -11 -1 -13 2 -18 9 -14 6 4 8 2 4 -4 -3 -6 -15 -9 -26 -7 -11 2
-23 -1 -26 -7 -4 -6 -2 -8 4 -4 6 3 13 3 16 -2 2 -4 -6 -8 -19 -8 -20 0 -22 3
-14 21 6 11 0 8 -12 -8 -12 -16 -25 -24 -28 -19 -3 5 -15 -2 -25 -16 -11 -14
-14 -22 -8 -18 19 11 14 2 -9 -17 -20 -18 -21 -18 -14 2 3 10 1 22 -5 26 -6 4
-10 3 -9 -2 4 -23 -2 -35 -17 -29 -8 3 -13 2 -10 -3 3 -5 -3 -19 -14 -31 -11
-13 -20 -19 -20 -14 0 6 5 15 12 22 9 9 9 12 1 12 -7 0 -15 -9 -18 -20 -3 -11
-11 -20 -16 -20 -6 0 -7 5 -3 12 4 7 3 8 -4 4 -9 -5 -9 -13 -2 -26 7 -13 7
-21 0 -25 -6 -4 -9 -1 -8 6 2 6 -3 14 -11 17 -10 3 -12 0 -8 -12 6 -16 2 -18
-41 -19 -17 0 -21 -4 -17 -18 7 -20 -10 -35 -21 -18 -5 8 -3 9 6 4 9 -5 11 -4
6 4 -10 15 -29 3 -22 -14 7 -20 -4 -26 -28 -13 -19 10 -20 10 -7 -5 12 -15 11
-17 -8 -18 -34 -2 -37 -3 -55 -21 -16 -17 -14 -23 7 -19 5 1 6 -3 2 -9 -4 -7
-11 -8 -18 -2 -21 17 -93 0 -81 -19 9 -15 -3 -10 -17 8 -8 9 -9 14 -3 10 7 -4
18 1 25 11 13 15 12 16 -3 3 -10 -7 -18 -10 -18 -7 0 4 -10 1 -22 -6 -13 -7
-27 -11 -32 -10 -5 2 -3 -4 4 -13 11 -13 10 -14 -6 -8 -10 3 -23 11 -27 17 -4
6 -6 -4 -3 -22 4 -28 2 -31 -10 -21 -7 6 -11 16 -7 23 3 6 3 8 -2 4 -4 -4 -15
-2 -24 5 -14 11 -14 10 -2 -5 15 -20 2 -25 -16 -7 -9 9 -11 6 -7 -12 5 -21 4
-22 -6 -6 -6 9 -16 17 -23 17 -8 0 -6 -4 3 -11 12 -9 11 -10 -7 -6 -15 3 -20
1 -16 -9 7 -19 -2 -18 -23 4 -17 16 -18 16 -11 -1 6 -15 3 -17 -12 -12 -11 3
-22 1 -26 -4 -4 -7 1 -8 12 -4 15 6 16 5 3 -9 -8 -9 -17 -12 -20 -8 -6 9 -25
13 -53 11 -10 0 -16 -5 -13 -9 6 -11 -25 -9 -42 2 -9 5 -15 1 -19 -13 -3 -11
-9 -18 -14 -15 -5 3 -12 -2 -15 -11 -6 -14 -8 -14 -19 1 -15 21 -46 28 -39 9
3 -7 0 -16 -6 -20 -6 -3 -9 -1 -8 6 2 6 -3 14 -11 17 -9 3 -11 0 -7 -9 4 -8 0
-5 -8 5 -16 20 -16 20 -16 0 -1 -19 -1 -19 -17 1 -12 16 -14 16 -10 3 3 -10 1
-20 -5 -24 -6 -4 -8 -3 -5 2 3 6 -8 15 -24 21 -24 10 -31 9 -36 -3 -3 -7 -9
-11 -14 -8 -5 3 -7 9 -5 13 6 10 -25 7 -43 -3 -8 -5 -16 -4 -21 4 -5 7 -13 9
-21 5 -8 -5 -11 -5 -7 0 4 4 2 15 -5 24 -11 14 -10 15 8 1 18 -14 19 -14 7 2
-14 18 -46 13 -36 -6 3 -6 -1 -4 -8 5 -11 13 -15 14 -26 3 -13 -14 -6 -44 12
-45 6 0 2 -4 -9 -9 -12 -5 -14 -9 -6 -9 11 -1 10 -5 -5 -16 -18 -14 -18 -14 2
-9 24 6 41 -11 23 -22 -8 -4 -9 -3 -5 4 4 7 2 12 -3 12 -6 0 -11 -5 -11 -11 0
-5 -4 -8 -8 -5 -4 2 -8 -4 -8 -14 0 -14 3 -16 13 -8 10 8 13 6 10 -8 -1 -11
-6 -26 -11 -34 -7 -12 -6 -13 5 -2 17 16 26 15 26 -3 0 -8 -4 -12 -9 -9 -4 3
-8 0 -8 -5 0 -6 4 -11 9 -11 5 0 11 -11 13 -25 3 -13 2 -22 -3 -20 -4 3 -10 2
-13 -3 -2 -4 4 -9 15 -9 11 -1 19 5 20 15 0 14 2 13 8 -3 11 -26 5 -36 -17
-28 -13 4 -13 2 3 -10 11 -8 24 -13 29 -10 5 4 6 1 2 -6 -4 -6 -11 -9 -16 -6
-5 3 -12 1 -15 -5 -4 -6 -3 -10 2 -9 18 3 47 -3 36 -8 -19 -7 -15 -33 5 -33
15 0 15 2 2 11 -13 9 -13 10 0 6 8 -2 15 -8 15 -13 0 -5 4 -15 9 -23 6 -10 5
-12 -2 -7 -17 10 -15 -10 3 -27 11 -12 12 -17 2 -20 -6 -3 -3 -6 8 -6 17 -1
17 -3 5 -11 -13 -8 -12 -10 3 -10 9 0 17 5 17 12 0 6 3 9 6 6 3 -4 1 -16 -6
-27 -9 -17 -8 -22 5 -27 8 -3 12 -11 8 -18 -4 -6 2 -4 13 4 10 8 16 11 12 6
-4 -5 -1 -15 7 -23 8 -8 15 -20 15 -26 0 -7 -5 -6 -11 3 -9 13 -10 13 -6 0 2
-8 12 -14 22 -12 9 2 14 -1 11 -6 -3 -5 3 -12 14 -15 14 -4 18 -10 13 -23 -5
-14 -2 -16 16 -11 21 5 22 4 8 -11 -13 -14 -13 -20 -2 -35 11 -15 13 -16 19
-2 3 8 11 15 18 14 10 0 10 -2 0 -6 -6 -2 -9 -9 -6 -14 3 -6 12 -5 22 3 14 12
14 10 3 -10 -11 -20 -10 -23 6 -20 13 2 17 -2 15 -19 -2 -12 2 -24 7 -28 7 -3
8 0 5 9 -3 9 -1 16 5 16 6 0 11 -7 11 -16 0 -9 5 -12 12 -8 7 5 9 2 5 -9 -4
-12 -1 -15 14 -12 11 2 17 0 14 -6 -4 -5 1 -9 9 -9 9 0 16 -5 16 -11 0 -5 6
-7 13 -3 9 6 9 4 -1 -8 -18 -23 12 -33 33 -11 13 12 16 13 15 2 -1 -8 -2 -21
-1 -29 1 -13 2 -13 11 0 8 12 10 11 10 -6 0 -25 22 -38 38 -22 7 7 12 3 17
-12 6 -18 9 -20 16 -9 7 11 9 10 9 -3 0 -10 4 -18 10 -18 5 0 7 8 4 18 -5 16
-5 16 6 -1 6 -9 8 -23 4 -30 -4 -6 3 -3 16 8 l23 20 -7 -22 c-5 -14 -3 -23 3
-23 6 0 11 5 11 11 0 6 7 4 15 -5 9 -8 22 -13 30 -10 8 4 15 1 15 -6 0 -10 4
-9 16 0 12 11 15 11 12 -1 -2 -8 3 -13 10 -11 8 1 11 -2 7 -8 -5 -8 -11 -7
-21 1 -8 7 -14 7 -14 1 0 -11 29 -26 44 -23 4 1 15 -4 23 -11 8 -7 22 -13 30
-14 11 -2 12 1 2 12 -6 7 -15 12 -19 9 -4 -3 -14 3 -21 13 -12 15 -12 16 1 6
8 -6 23 -10 33 -9 9 2 14 -1 11 -7 -3 -5 2 -8 12 -6 13 2 20 -4 22 -19 4 -26
12 -29 30 -11 9 9 12 9 12 0 0 -7 5 -12 11 -12 5 0 8 4 5 8 -6 11 25 9 42 -2
8 -4 11 -14 8 -21 -6 -16 60 -11 81 7 9 7 13 7 13 0 0 -6 -6 -12 -12 -15 -7
-2 -10 -8 -6 -12 4 -4 14 -2 22 4 12 10 19 8 35 -8 16 -16 21 -17 21 -6 0 7
-8 19 -17 24 -10 6 -13 10 -8 10 17 0 45 -26 37 -34 -4 -5 0 -4 8 1 21 12 41
14 34 3 -3 -5 -10 -6 -16 -3 -6 4 -8 2 -4 -4 3 -6 15 -10 26 -9 10 1 17 4 15
7 -2 3 1 12 7 20 8 13 9 13 5 -1 -3 -9 -1 -22 4 -30 6 -10 9 -8 9 11 1 25 1
25 10 3 5 -13 12 -23 15 -23 4 0 4 4 1 9 -3 5 1 12 10 15 8 3 13 2 10 -3 -3
-4 6 -13 19 -19 18 -8 26 -8 31 0 4 6 3 8 -4 4 -6 -3 -13 -2 -16 3 -4 5 -2 12
3 15 5 4 13 1 16 -5 4 -5 13 -8 21 -5 7 3 17 0 21 -7 11 -17 53 -18 46 -1 -3
9 2 11 17 7 16 -4 18 -8 8 -14 -9 -6 -9 -9 -1 -9 6 0 15 5 18 10 3 6 14 10 23
10 15 0 15 -2 2 -10 -12 -7 -10 -9 7 -7 12 0 19 5 17 9 -3 4 0 8 5 8 6 0 11
-4 11 -10 0 -5 4 -10 10 -10 5 0 7 6 4 14 -3 8 0 17 6 21 6 3 10 3 9 -2 -3
-20 2 -34 11 -28 6 4 8 10 5 15 -5 9 41 4 57 -6 4 -3 8 0 8 5 0 6 5 11 11 11
5 0 8 -4 4 -9 -3 -5 0 -13 6 -17 8 -4 9 -3 5 4 -5 8 8 11 44 9 28 -2 54 1 57
6 3 6 1 7 -5 3 -6 -3 -13 -3 -16 2 -2 4 6 8 19 8 13 0 21 -4 19 -8 -3 -4 2 -8
10 -8 9 0 16 5 16 11 0 5 5 7 10 4 6 -4 8 -11 5 -16 -4 -5 4 -5 19 1 17 6 27
6 32 -2 5 -7 3 -8 -6 -3 -9 5 -11 4 -6 -4 4 -6 12 -9 17 -5 5 3 16 0 24 -6 8
-7 15 -9 15 -5 0 4 -10 15 -22 26 -23 19 -23 19 9 3 18 -8 35 -19 38 -24 3 -5
13 -6 23 -3 14 5 14 3 -2 -9 -15 -12 -16 -17 -6 -23 9 -5 11 -4 6 3 -4 7 -2
12 3 12 6 0 11 -5 11 -11 0 -8 6 -7 17 2 15 13 15 12 4 -9 -7 -13 -10 -26 -7
-30 3 -3 6 0 6 7 0 7 5 9 10 6 6 -4 7 -11 4 -17 -5 -7 0 -9 15 -5 18 4 20 3
10 -9 -9 -11 -9 -14 0 -14 7 0 9 -5 5 -12 -5 -8 0 -7 11 2 11 9 16 10 11 3 -4
-8 -2 -13 4 -13 7 0 10 -6 7 -13 -3 -7 4 -24 15 -38 11 -13 16 -18 12 -10 -5
10 -3 12 5 7 9 -6 9 -11 0 -22 -6 -8 -9 -17 -5 -21 3 -3 6 -2 6 4 0 6 8 14 18
18 13 5 14 4 5 -6 -13 -13 1 -54 16 -45 4 3 8 -1 8 -9 0 -8 -4 -12 -8 -9 -4 2
-11 -1 -15 -8 -4 -7 -4 -10 1 -6 13 12 45 -11 38 -28 -5 -14 -3 -15 15 -5 19
10 20 9 12 -20 -8 -26 -7 -29 5 -19 12 10 15 9 15 -4 0 -10 4 -15 9 -12 12 8
22 -20 15 -41 -5 -17 -5 -17 9 0 12 14 16 15 20 4 3 -8 0 -20 -6 -27 -9 -10
-9 -11 2 -5 11 6 13 4 8 -8 -3 -10 -2 -17 2 -17 5 0 12 6 14 13 3 6 6 2 6 -10
1 -13 6 -23 12 -23 7 0 9 -9 6 -21 -4 -16 -3 -18 8 -9 9 8 14 6 19 -5 3 -9 10
-14 15 -11 4 3 7 -6 5 -19 -1 -14 2 -27 7 -31 5 -3 9 1 9 8 0 9 3 9 10 -2 9
-13 10 -13 10 0 0 13 2 13 9 0 12 -18 3 -34 -13 -21 -8 7 -17 6 -26 -1 -12 -8
-12 -9 3 -4 11 3 20 0 24 -10 3 -8 11 -13 18 -10 9 3 11 -3 8 -17 -4 -18 -3
-19 6 -7 9 13 11 11 11 -7 0 -12 -6 -24 -12 -27 -7 -3 -3 -3 10 0 21 5 29 -8
23 -40 -1 -5 6 -6 15 -2 13 5 15 2 11 -14 -3 -11 -1 -18 4 -14 5 3 9 0 9 -6 0
-6 5 -8 10 -5 6 4 10 -5 10 -19 0 -20 5 -26 23 -27 12 0 16 -3 10 -6 -23 -9
-14 -25 10 -18 18 6 20 5 10 -6 -17 -17 -16 -32 1 -26 9 4 12 0 9 -13 -6 -23
16 -37 29 -19 8 11 9 10 5 -3 -3 -9 1 -22 9 -29 9 -7 11 -16 5 -23 -6 -7 -3
-20 11 -36 11 -14 17 -19 13 -13 -4 9 -1 11 9 7 12 -4 13 -11 6 -24 -11 -21
-2 -34 16 -19 8 7 14 6 20 -2 4 -7 3 -9 -3 -6 -6 4 -13 -2 -16 -12 -4 -16 0
-18 22 -15 25 5 26 5 6 -11 -18 -15 -18 -16 -2 -11 15 5 17 2 12 -15 -5 -15
-4 -19 4 -15 7 5 11 -1 11 -14 0 -16 5 -20 15 -16 8 3 14 2 14 -2 -3 -21 2
-32 13 -26 7 4 8 3 4 -5 -4 -6 -12 -9 -17 -6 -5 4 -9 1 -9 -6 0 -6 8 -9 18 -7
11 3 19 0 19 -8 0 -7 -4 -11 -9 -8 -4 3 -8 0 -8 -5 0 -10 11 -14 30 -13 3 0 6
-12 7 -26 0 -15 6 -28 12 -30 6 -2 11 -8 11 -13 0 -6 -4 -7 -10 -4 -5 3 -10 1
-10 -4 0 -6 8 -11 18 -11 14 0 15 -2 2 -10 -11 -7 -11 -10 -2 -10 8 0 10 -5 6
-12 -5 -8 0 -7 11 2 11 9 16 10 11 3 -4 -8 -2 -13 4 -13 6 0 8 -5 5 -10 -4 -6
-11 -7 -17 -4 -7 4 -8 2 -4 -5 4 -6 12 -9 17 -6 5 4 9 -2 9 -12 0 -10 9 -25
20 -33 11 -8 20 -19 20 -24 0 -5 -8 -2 -18 7 -16 15 -19 15 -19 2 0 -8 2 -13
5 -10 2 2 11 -3 19 -11 8 -8 18 -12 23 -9 11 7 7 -22 -5 -32 -4 -4 -5 -3 -1 4
3 6 2 14 -3 17 -10 7 -9 -20 2 -30 3 -4 15 -1 24 7 16 12 17 12 7 -1 -21 -29
-23 -48 -6 -62 15 -12 16 -11 3 5 -7 9 -9 17 -3 17 18 0 22 -30 5 -37 -13 -5
-12 -8 8 -16 13 -6 28 -9 32 -8 5 1 6 -3 2 -9 -3 -6 -10 -8 -15 -5 -5 3 -12 0
-16 -6 -5 -8 -3 -9 6 -4 10 6 12 4 6 -10 -5 -15 -4 -16 9 -5 9 7 18 10 22 6 3
-3 2 -6 -4 -6 -6 0 -8 -12 -5 -26 3 -19 1 -25 -6 -20 -8 5 -10 1 -5 -10 4 -12
8 -14 11 -6 3 10 7 10 17 2 8 -6 11 -18 8 -27 -3 -8 -1 -18 5 -22 6 -3 12 -13
14 -21 2 -8 10 -21 18 -28 13 -11 11 -11 -8 -2 -12 6 -20 16 -16 22 4 7 3 8
-4 4 -16 -10 -15 -12 9 -35 14 -13 20 -27 16 -40 -5 -20 7 -27 36 -22 4 0 7
-4 7 -9 0 -6 -5 -10 -12 -10 -9 0 -9 -3 -1 -11 9 -9 8 -19 -3 -41 -10 -20 -11
-27 -2 -26 17 4 23 -33 6 -44 -9 -7 -7 -8 8 -4 14 4 21 2 21 -8 0 -9 -3 -13
-7 -11 -4 2 -7 -2 -7 -11 0 -9 7 -13 21 -9 12 3 15 2 8 -1 -6 -3 -9 -11 -5
-17 4 -7 0 -8 -13 -3 -10 4 -15 4 -11 0 4 -4 1 -14 -6 -22 -10 -13 -9 -14 1
-8 7 4 15 1 18 -8 3 -9 14 -16 23 -17 12 0 12 -2 -4 -9 -11 -5 -15 -9 -8 -9 7
-1 10 -8 6 -18 -4 -10 -2 -14 4 -10 7 5 9 0 6 -13 -3 -11 -10 -17 -16 -13 -6
3 -7 1 -3 -5 4 -6 14 -8 24 -5 14 5 13 2 -3 -11 -11 -10 -13 -15 -5 -11 9 4 8
1 -3 -8 -16 -13 -16 -15 -2 -21 11 -4 14 -2 9 6 -4 7 -3 8 4 4 9 -5 8 -14 -4
-31 -15 -23 -5 -43 16 -30 6 3 10 4 10 1 0 -3 -12 -12 -27 -21 l-28 -15 35 5
c22 3 30 2 22 -3 -19 -13 -19 -16 -3 -36 8 -9 11 -19 7 -23 -3 -3 -6 -1 -6 6
0 7 -5 9 -12 5 -7 -5 -8 -2 -3 7 7 12 5 12 -6 1 -12 -11 -12 -14 0 -21 8 -5
11 -16 8 -25 -4 -9 -7 -20 -8 -24 0 -4 -5 -12 -11 -19 -7 -9 -4 -11 11 -8 11
2 24 -1 27 -7 4 -6 2 -8 -4 -4 -11 6 -25 -9 -28 -31 -1 -7 2 -15 7 -19 5 -3 9
-10 9 -16 0 -6 -9 -3 -20 7 -19 17 -19 17 -7 -8 6 -14 16 -23 22 -20 5 2 1 -3
-9 -11 -20 -16 -20 -16 0 -17 15 -1 14 -3 -6 -9 -20 -6 -21 -8 -6 -9 16 -1 17
-4 8 -13 -15 -15 -16 -42 -2 -33 6 4 7 11 4 17 -4 7 -2 8 5 4 8 -6 9 -12 2
-20 -7 -9 -7 -17 2 -26 10 -12 9 -12 -5 -1 -21 15 -24 2 -5 -19 10 -12 9 -12
-3 -3 -11 8 -18 7 -28 -3 -8 -9 -9 -14 -2 -14 8 0 7 -6 0 -21 -9 -15 -8 -24 2
-37 7 -9 8 -13 3 -10 -6 4 -17 -2 -24 -14 -10 -16 -10 -18 0 -12 8 5 11 2 6
-8 -3 -9 0 -21 6 -28 10 -10 8 -10 -10 -1 -21 10 -21 9 -13 -19 5 -17 5 -28 0
-25 -9 6 -40 -33 -40 -50 0 -5 5 -3 10 5 7 11 10 12 10 2 0 -8 -9 -16 -20 -19
-11 -3 -17 -9 -14 -14 3 -5 10 -6 16 -3 7 5 8 2 4 -5 -5 -7 -14 -10 -22 -7 -9
3 -11 0 -7 -11 5 -12 3 -14 -8 -8 -11 7 -11 5 1 -10 9 -11 10 -16 3 -11 -9 4
-13 1 -13 -9 0 -12 -5 -15 -17 -11 -15 5 -15 4 1 -9 19 -14 19 -15 2 -15 -16
0 -17 -2 -5 -17 13 -15 12 -15 -11 -3 -23 12 -24 12 -11 -4 8 -9 10 -16 5 -15
-21 4 -28 -2 -14 -11 13 -8 12 -10 -2 -10 -10 0 -18 -4 -18 -9 0 -5 -9 -11
-21 -14 -18 -5 -19 -8 -8 -29 12 -22 11 -22 -6 -8 -11 9 -16 10 -11 3 4 -8 1
-13 -9 -13 -9 0 -13 -5 -10 -10 4 -6 11 -7 17 -4 7 4 8 2 4 -5 -4 -6 -12 -9
-17 -6 -9 6 -14 -9 -9 -30 1 -5 -2 -7 -6 -3 -4 4 -14 2 -22 -5 -11 -9 -10 -4
3 18 17 28 16 27 -13 -5 -17 -19 -29 -41 -27 -47 6 -17 -12 -17 -19 0 -4 6 -4
2 -2 -10 2 -13 0 -23 -5 -23 -5 0 -9 5 -9 10 0 6 -4 10 -10 10 -5 0 -7 -7 -4
-15 5 -12 2 -14 -12 -8 -17 6 -18 5 -4 -12 12 -15 12 -17 1 -10 -10 6 -13 4
-9 -6 4 -10 -1 -15 -13 -16 -12 -1 -16 3 -13 15 5 15 4 15 -6 -1 -6 -9 -15
-15 -19 -13 -4 3 -8 -4 -8 -15 -1 -10 3 -19 8 -19 6 0 8 4 4 9 -3 5 -1 12 4
15 5 4 12 2 15 -3 8 -13 -21 -34 -39 -27 -8 3 -15 3 -15 0 0 -2 12 -9 26 -14
15 -6 22 -14 18 -22 -4 -7 -3 -8 5 -4 9 6 9 11 -1 24 -11 13 -10 15 5 9 11 -4
16 -3 12 3 -3 6 -2 10 4 10 5 0 12 -6 14 -12 4 -10 8 -10 15 1 6 8 15 10 23 5
12 -6 11 -5 0 9 -12 15 -12 17 0 12 8 -3 23 2 34 11 11 8 14 12 6 8 -10 -5
-12 -3 -6 6 6 10 11 9 23 -6 12 -15 13 -15 9 -2 -3 9 0 22 8 28 10 8 16 7 24
-7 6 -11 11 -13 11 -5 0 7 4 11 8 8 5 -3 9 1 9 9 0 11 -4 12 -14 4 -7 -6 -13
-8 -13 -4 0 19 35 33 55 22 18 -9 19 -9 5 8 -14 17 -14 18 9 6 16 -9 21 -9 16
-2 -4 8 2 10 19 7 14 -3 28 -1 31 4 3 5 -3 7 -15 5 -11 -2 -22 1 -26 6 -3 5
-2 9 3 8 22 -4 34 2 27 14 -6 9 -4 9 7 1 19 -14 45 -11 42 4 -2 7 2 12 8 12 5
0 7 5 3 12 -4 6 -3 8 4 4 6 -3 15 2 21 11 6 10 11 13 11 8 0 -6 -8 -21 -17
-34 -9 -14 -11 -21 -4 -16 7 4 19 21 26 39 11 25 15 28 20 14 6 -15 9 -15 21
-3 20 20 17 30 -3 14 -16 -13 -17 -12 -4 4 10 12 17 15 25 7 5 -5 15 -10 20
-10 6 0 5 4 -2 8 -14 9 -6 42 10 42 6 0 5 -7 -2 -15 -11 -13 -10 -14 2 -10 9
4 21 16 27 28 11 21 11 21 6 -3 -3 -14 -2 -19 1 -12 3 6 9 10 13 7 5 -2 7 7 6
20 -2 13 0 24 3 24 15 -2 51 14 47 20 -2 4 2 8 10 8 8 0 11 -5 8 -10 -4 -6 -1
-7 6 -3 7 5 10 14 7 21 -7 20 4 26 28 13 19 -10 20 -10 8 5 -12 14 -11 16 7
12 12 -2 21 1 21 7 0 6 7 5 17 -3 15 -13 15 -11 -1 13 -17 26 -17 26 3 21 10
-3 27 -1 36 5 16 8 16 9 1 15 -10 4 -15 3 -12 -1 3 -5 -2 -9 -10 -9 -10 0 -11
4 -4 11 15 15 42 16 59 3 12 -10 13 -9 6 3 -15 24 -15 43 -1 31 14 -11 26 -5
26 13 0 6 -5 4 -10 -4 -5 -8 -10 -10 -10 -4 0 20 27 37 36 23 5 -8 3 -9 -6 -4
-9 5 -11 4 -6 -4 4 -6 12 -9 17 -5 5 3 7 9 4 14 -3 4 2 10 10 14 8 3 15 13 15
22 0 11 5 14 16 10 11 -4 15 -2 11 7 -3 8 -1 20 5 28 8 11 9 10 4 -3 -3 -10
-1 -18 4 -18 6 0 10 4 10 10 0 5 6 9 13 7 7 -1 11 6 9 16 -2 10 3 16 10 15 7
-2 12 5 12 15 -2 14 1 15 12 6 10 -8 12 -7 9 10 -3 18 -1 20 14 11 16 -8 17
-6 14 18 -4 21 -2 24 6 12 8 -11 11 -12 11 -2 0 7 4 11 9 8 5 -3 15 2 22 11
10 12 10 14 2 9 -18 -10 -16 2 2 20 8 9 20 12 27 8 9 -5 8 -2 -1 9 -12 15 -12
17 1 12 10 -4 17 1 21 16 4 13 11 20 19 16 9 -3 14 3 15 16 1 11 7 25 13 31 8
8 9 6 5 -9 -5 -12 1 -9 13 9 12 17 18 34 15 39 -3 4 3 7 13 5 13 -2 19 4 20
20 2 37 4 38 21 17 15 -19 15 -19 9 8 -5 21 -4 27 5 21 9 -5 10 -2 6 9 -4 12
-2 14 11 10 15 -6 15 -5 3 10 -12 15 -12 17 3 11 12 -5 15 -2 10 10 -5 12 0
16 16 16 19 0 20 2 10 15 -11 13 -10 14 6 8 17 -6 18 -5 4 12 -14 17 -14 18 9
6 13 -7 21 -8 17 -3 -3 6 -2 13 4 17 6 4 8 11 5 16 -4 5 -1 9 6 9 8 0 8 4 1
13 -8 10 -6 13 8 13 10 0 16 -5 13 -10 -3 -5 -1 -6 6 -2 6 4 9 18 7 31 -3 18
-1 22 10 18 12 -4 14 1 9 28 -3 22 -2 29 4 20 7 -11 10 -9 16 8 3 12 11 18 17
15 7 -5 9 -1 5 9 -6 16 3 22 26 18 5 -1 6 3 2 9 -3 6 -12 7 -18 3 -8 -5 -8 -2
0 9 7 8 9 19 5 23 -4 5 -2 5 5 2 6 -4 18 -1 26 7 8 8 18 12 22 8 5 -4 5 -1 1
6 -6 11 -11 11 -24 0 -14 -11 -14 -9 1 8 9 11 14 24 10 29 -5 4 -2 4 6 0 11
-6 13 -4 8 7 -3 9 3 25 14 37 26 28 37 27 13 -1 -12 -14 -13 -18 -3 -10 9 6
18 10 21 7 2 -3 5 3 5 13 0 9 -5 20 -11 25 -7 4 -3 9 11 13 13 4 20 10 18 15
-3 4 -13 6 -23 3 -14 -5 -14 -4 -2 4 8 6 18 8 23 5 5 -3 6 5 2 18 -7 23 -6 23
7 5 8 -10 21 -16 29 -13 10 4 9 6 -3 6 -25 1 -22 24 5 58 13 15 23 38 22 51
-1 19 2 22 17 19 16 -4 17 -3 7 9 -6 7 -16 11 -22 7 -6 -4 -7 -1 -3 6 5 7 14
10 22 7 10 -4 11 0 5 17 -10 28 -4 47 14 41 7 -3 16 0 21 7 4 7 3 10 -4 5 -7
-4 -10 1 -9 14 1 18 15 25 40 21 5 -1 5 3 2 9 -4 6 -13 9 -21 6 -21 -8 -26 10
-7 25 14 12 16 12 8 -1 -8 -13 -6 -13 8 -1 13 10 14 17 6 34 -9 17 -9 19 4 14
11 -4 14 -2 10 8 -3 8 -10 12 -17 8 -7 -4 -7 -1 1 9 7 8 10 17 7 20 -2 3 2 8
11 12 13 4 14 2 5 -14 -7 -12 -7 -21 0 -25 5 -3 10 -5 11 -3 7 33 5 58 -4 58
-7 1 -1 7 13 15 14 8 19 14 13 15 -7 0 -13 9 -13 21 0 13 4 18 12 13 7 -5 8
-3 2 7 -4 8 -9 21 -11 29 -1 11 1 11 11 -3 12 -16 14 -16 20 -2 3 9 2 13 -4
10 -14 -9 -12 9 2 23 7 7 8 12 2 12 -5 0 -2 5 6 10 13 8 12 10 -3 10 -10 0
-16 4 -13 9 4 5 0 12 -6 15 -7 3 -4 4 7 1 15 -4 21 0 21 14 0 11 -4 17 -8 15
-14 -9 -8 4 10 22 16 17 16 17 -8 11 -23 -6 -24 -5 -6 8 10 8 23 12 27 9 5 -3
6 2 3 10 -4 10 -1 16 7 16 7 0 9 3 6 7 -4 3 -17 -2 -28 -13 -22 -19 -22 -19
-8 4 8 12 18 22 23 22 5 0 1 10 -10 22 -10 12 -13 18 -5 13 11 -6 13 -4 7 10
-5 15 -4 16 8 6 12 -10 13 -8 9 10 -4 14 -2 20 4 16 6 -4 8 3 5 18 -2 14 -9
22 -15 18 -5 -3 -7 -1 -3 5 3 5 3 12 -1 15 -5 2 -3 2 4 1 8 -2 11 7 8 27 -2
17 0 27 6 23 5 -3 7 -10 3 -15 -3 -5 0 -16 6 -24 10 -11 10 -15 1 -15 -7 0 -9
-5 -6 -11 4 -6 9 -8 13 -5 8 8 11 76 3 72 -4 -3 -13 5 -21 17 -12 20 -11 21 2
9 22 -18 25 -6 23 130 -1 106 -10 155 -22 121 -5 -14 -23 -18 -23 -5 0 5 11
14 23 19 13 6 24 18 24 27 0 8 -4 13 -9 10 -4 -3 -16 0 -25 5 -13 7 -14 10 -4
11 8 0 12 2 9 6 -3 3 -2 21 2 40 7 29 6 33 -6 23 -9 -8 -14 -8 -14 -1 0 6 8
16 18 21 14 9 14 10 2 11 -9 0 -21 -5 -28 -12 -8 -8 -12 -8 -12 -1 0 6 7 13
15 17 8 3 15 10 15 16 0 6 -5 8 -11 4 -8 -4 -8 -1 -1 13 12 21 5 37 -18 46
-12 4 -11 6 3 6 10 1 15 6 12 11 -4 6 -8 22 -11 36 -3 18 -1 23 7 18 8 -4 9
-3 5 5 -10 15 -29 3 -22 -15 3 -7 1 -16 -4 -19 -10 -6 -7 36 4 54 4 6 12 8 18
5 7 -4 8 -2 4 4 -5 9 -13 9 -27 1 -12 -6 -23 -8 -27 -5 -3 3 0 6 6 6 6 0 16
10 23 21 8 15 8 19 0 15 -6 -4 -11 -3 -11 3 0 5 5 12 10 14 6 3 5 4 -2 3 -7
-2 -13 -10 -13 -19 0 -8 -3 -19 -7 -22 -4 -4 -5 7 -3 24 3 21 1 29 -7 25 -7
-4 -8 -3 -4 5 4 6 12 9 17 6 5 -4 9 -1 9 4 0 6 -9 11 -19 11 -13 0 -19 6 -18
19 0 11 4 18 8 15 4 -2 10 3 13 12 3 8 2 13 -2 10 -4 -2 -14 -1 -22 5 -11 6
-11 9 -2 9 10 0 10 5 2 20 -6 11 -8 20 -4 20 3 0 2 6 -5 13 -8 10 -7 17 2 27
10 12 9 12 -6 0 -12 -9 -21 -10 -28 -3 -8 8 -7 13 2 18 8 6 10 4 4 -5 -5 -9
-4 -11 4 -6 16 10 -6 38 -23 30 -6 -3 -3 1 7 9 24 20 21 30 -4 16 -13 -7 -19
-7 -15 -1 3 6 2 14 -4 17 -8 5 -8 11 0 20 8 10 8 15 0 20 -6 4 -9 12 -7 19 3
7 -2 23 -9 37 -12 20 -14 21 -12 4 2 -11 7 -23 12 -26 4 -4 3 -10 -3 -13 -6
-4 -12 -2 -12 3 -1 6 -2 17 -3 24 0 6 -7 12 -15 12 -8 0 -15 9 -16 20 -2 11
-5 27 -7 35 -3 8 -3 12 -1 8 3 -5 9 -8 15 -8 6 0 5 6 -2 15 -7 8 -19 14 -28
13 -9 -2 -16 6 -17 20 -1 13 -6 27 -11 30 -5 4 -10 14 -12 22 -2 8 -8 17 -13
18 -6 3 -6 9 1 17 9 11 6 12 -12 7 -20 -5 -21 -3 -10 10 11 14 10 16 -6 11
-11 -2 -23 1 -27 8 -5 8 -4 10 3 5 7 -4 20 -2 29 3 15 8 15 11 3 12 -8 1 -18
1 -22 0 -5 0 -8 7 -8 16 0 15 -2 16 -10 3 -8 -12 -10 -10 -10 8 0 16 -4 21
-12 16 -8 -5 -8 -2 1 10 8 9 10 16 5 15 -26 -5 -36 1 -25 15 8 9 8 16 2 20 -5
4 -12 2 -16 -3 -3 -6 -13 -7 -21 -4 -13 5 -13 8 -2 15 10 7 10 11 1 15 -7 2
-13 9 -13 14 0 6 6 7 13 3 8 -6 8 -3 -1 9 -8 9 -17 16 -20 15 -4 0 -14 0 -22
1 -13 1 -13 2 0 11 12 8 11 10 -7 10 -13 0 -24 3 -24 8 -1 4 -3 17 -4 30 -1
12 -6 26 -10 30 -5 4 -5 -1 -2 -10 4 -12 1 -18 -8 -18 -8 0 -12 8 -10 20 2 11
-1 20 -6 20 -6 0 -8 4 -4 9 3 6 -4 8 -16 6 -17 -4 -19 -2 -9 10 15 18 -1 20
-19 3 -10 -11 -11 -6 -7 22 3 19 3 29 0 23 -3 -7 -10 -13 -15 -13 -6 0 -7 5
-4 10 3 6 1 10 -5 10 -6 0 -8 6 -4 13 6 10 4 10 -7 0 -7 -7 -18 -13 -24 -13
-5 0 -3 5 5 10 8 5 10 10 4 10 -7 0 -14 9 -17 20 -3 13 -11 18 -26 15 -14 -3
-19 0 -15 7 5 8 1 9 -12 4 -15 -6 -16 -5 -7 5 10 10 15 9 28 -1 8 -7 15 -9 15
-4 0 5 -12 18 -27 28 -14 11 -24 15 -20 10 3 -5 -3 -10 -13 -10 -15 0 -17 4
-8 20 9 16 8 18 -7 12 -13 -5 -16 -2 -11 10 5 14 4 15 -8 5 -11 -9 -16 -9 -22
0 -4 8 -3 9 4 5 7 -4 12 -1 12 7 0 10 -7 13 -20 10 -12 -3 -20 0 -20 6 0 7 5
9 12 5 7 -4 8 -3 4 4 -4 6 -13 9 -21 5 -17 -6 -20 8 -5 23 7 7 6 11 -4 11 -8
0 -13 -4 -10 -9 3 -4 0 -8 -5 -8 -6 0 -11 10 -11 22 0 12 -3 18 -7 15 -3 -4
-13 -1 -22 5 -9 8 -8 3 3 -10 16 -18 17 -22 4 -17 -20 8 -31 33 -21 47 3 6 1
8 -5 4 -5 -3 -12 -3 -15 1 -2 5 -2 1 0 -7 2 -11 0 -11 -10 2 -8 10 -18 14 -22
10 -5 -4 -6 -2 -2 3 3 6 -3 21 -12 34 -14 18 -20 21 -26 11 -6 -9 -4 -11 5 -5
9 5 11 4 6 -4 -11 -17 -26 -3 -19 17 6 15 5 16 -12 2 -17 -14 -18 -13 -12 4 6
14 4 17 -9 12 -11 -4 -18 1 -21 14 -5 17 -8 18 -21 8 -12 -10 -14 -10 -8 0 7
11 -5 17 -28 13 -5 -1 -3 6 5 15 9 12 9 15 2 10 -8 -4 -13 -2 -13 4 0 6 -4 8
-10 5 -5 -3 -10 -1 -10 4 0 6 -3 10 -7 10 -5 -1 -11 0 -15 1 -5 1 -13 3 -20 4
-6 0 -13 8 -15 16 -4 13 -3 13 6 0 8 -12 10 -11 8 8 -1 14 -5 18 -11 12 -14
-14 -26 -12 -26 4 0 20 -17 29 -26 15 -4 -7 -3 -9 3 -6 5 3 10 0 10 -8 0 -11
-3 -12 -14 -3 -8 6 -12 16 -9 23 2 6 -2 12 -10 12 -7 0 -11 -5 -7 -10 3 -5 -4
-4 -14 2 -11 6 -24 7 -28 3 -5 -4 -5 -2 -2 4 4 7 -2 23 -14 35 -11 13 -18 18
-14 12 4 -8 0 -13 -10 -13 -11 0 -15 5 -12 14 3 8 -1 17 -9 20 -8 3 -13 2 -10
-2 2 -4 -4 -8 -14 -8 -18 0 -18 1 -2 20 12 15 13 17 2 9 -20 -15 -62 -13 -56
3 3 7 -2 15 -10 18 -9 3 -12 11 -8 17 4 8 3 9 -4 5 -6 -4 -9 -14 -6 -24 5 -13
4 -14 -4 -3 -6 8 -15 10 -23 5 -12 -6 -12 -5 0 9 12 15 11 17 -8 17 -15 0 -20
5 -18 20 2 11 6 23 10 26 4 4 1 14 -6 22 -9 13 -9 14 1 8 7 -4 12 -2 12 4 0 6
5 8 13 4 8 -5 7 -2 -2 9 -12 15 -12 17 2 11 28 -10 45 49 19 65 -11 7 -10 9 3
14 11 5 14 3 9 -6 -5 -8 -2 -7 9 2 18 14 23 26 8 16 -5 -3 -12 -1 -16 5 -3 5
-1 10 4 10 6 0 11 9 11 21 0 11 4 18 9 14 5 -3 13 0 17 6 4 7 3 9 -4 5 -6 -3
-13 -2 -17 4 -4 6 -12 7 -18 3 -7 -3 -4 3 6 14 9 11 14 23 10 27 -4 4 0 4 10
0 13 -5 16 -2 11 10 -3 9 -11 13 -18 9 -6 -3 -8 -3 -4 2 4 4 2 15 -4 24 -10
13 -10 14 1 4 7 -6 20 -9 28 -6 11 4 10 8 -4 19 -11 9 -13 13 -4 12 7 -2 16 3
19 11 2 8 0 11 -5 8 -5 -3 -10 0 -10 8 0 8 5 11 10 8 5 -3 7 0 5 8 -3 8 2 20
11 27 14 11 13 12 -9 8 -14 -3 -19 -3 -12 0 6 3 12 12 12 20 0 8 5 14 11 14 6
0 3 7 -5 16 -12 12 -13 20 -6 35 6 10 7 19 3 19 -4 0 2 6 12 14 20 15 29 46
13 46 -7 0 -6 5 1 14 8 10 9 16 1 21 -5 3 -10 14 -10 23 1 16 2 16 14 0 7 -10
17 -18 21 -18 5 0 1 8 -8 18 -13 15 -14 21 -4 32 10 12 9 12 -5 1 -20 -15 -25
-2 -7 16 8 8 7 13 -2 18 -8 6 -10 4 -4 -5 5 -9 4 -11 -4 -6 -6 4 -9 12 -5 17
3 5 8 7 12 5 4 -2 13 3 21 11 12 13 11 14 -7 9 -19 -6 -20 -5 -9 29 7 25 13
32 20 23 6 -10 7 -9 4 2 -2 8 -9 14 -15 13 -5 -1 -10 8 -10 20 0 12 -2 34 -5
50 -2 15 0 30 6 34 6 3 7 2 4 -4 -3 -5 0 -10 8 -10 11 0 12 4 4 13 -7 8 -7 14
1 19 6 4 7 12 1 23 -6 11 -4 20 7 29 15 12 15 12 -2 6 -14 -4 -17 -2 -14 8 3
8 11 13 17 11 7 -1 10 2 6 8 -3 6 -12 7 -18 3 -7 -4 -6 0 2 10 11 14 11 17 0
17 -11 0 -11 2 1 10 12 8 12 10 1 10 -11 0 -11 3 0 17 11 13 11 17 2 20 -7 3
-13 9 -13 14 0 4 8 6 18 3 14 -5 14 -4 3 4 -17 12 -22 71 -7 90 5 8 5 12 0 11
-27 -5 -36 1 -24 16 7 8 10 15 7 15 -3 0 -9 -5 -12 -10z m-40 -30 c-3 -5 -12
-10 -18 -10 -7 0 -6 4 3 10 19 12 23 12 15 0z m56 -283 c-8 -8 -14 -7 -23 2
-11 10 -9 11 6 5 15 -6 17 -4 11 6 -6 9 -4 11 4 5 9 -5 10 -10 2 -18z m-553
-30 c9 3 14 3 10 -1 -3 -4 -12 -8 -20 -10 -7 -1 -19 -5 -26 -10 -12 -7 -12 -4
-1 15 7 14 14 19 16 12 3 -7 12 -9 21 -6z m536 -103 c3 -8 2 -12 -4 -9 -6 3
-10 10 -10 16 0 14 7 11 14 -7z m-756 -134 c-7 -10 -14 -18 -15 -16 -6 6 9 36
18 36 5 0 4 -9 -3 -20z m752 -45 c14 -19 14 -19 -2 -6 -10 7 -18 18 -18 24 0
6 1 8 3 6 1 -2 9 -13 17 -24z m0 -45 c7 -13 7 -21 -2 -26 -7 -4 -8 -3 -4 4 4
7 0 12 -11 13 -11 0 -13 3 -5 6 10 4 10 8 0 21 -10 12 -10 14 -1 8 7 -4 17
-16 23 -26z m-815 -10 c-3 -5 -1 -10 6 -10 7 0 10 -3 6 -6 -9 -9 -28 6 -22 17
4 5 8 9 11 9 3 0 2 -4 -1 -10z m-45 -64 c0 -3 -4 -8 -10 -11 -5 -3 -10 -1 -10
4 0 6 5 11 10 11 6 0 10 -2 10 -4z m-970 -306 c0 -5 -5 -10 -11 -10 -5 0 -7 5
-4 10 3 6 8 10 11 10 2 0 4 -4 4 -10z m1743 -107 c-3 -7 -6 -13 -8 -13 -2 0
-5 6 -8 13 -3 8 1 14 8 14 7 0 11 -6 8 -14z m-2236 -178 c0 -8 -4 -12 -9 -9
-4 3 -8 9 -8 15 0 5 4 9 8 9 5 0 9 -7 9 -15z m-787 -75 c0 -5 -5 -10 -11 -10
-5 0 -7 5 -4 10 3 6 8 10 11 10 2 0 4 -4 4 -10z m494 2 c3 -5 -1 -9 -9 -9 -8
0 -12 4 -9 9 3 4 7 8 9 8 2 0 6 -4 9 -8z m-79 -11 c3 -5 2 -12 -3 -15 -5 -3
-9 1 -9 9 0 17 3 19 12 6z m30 -11 c3 -5 1 -10 -4 -10 -6 0 -11 5 -11 10 0 6
2 10 4 10 3 0 8 -4 11 -10z m-327 -25 c-3 -3 -9 2 -12 12 -6 14 -5 15 5 6 7
-7 10 -15 7 -18z m60 0 c-3 -3 -9 2 -12 12 -6 14 -5 15 5 6 7 -7 10 -15 7 -18z
m3782 -555 c0 -5 -2 -10 -4 -10 -3 0 -8 5 -11 10 -3 6 -1 10 4 10 6 0 11 -4
11 -10z m-3686 -35 c-4 -8 -11 -12 -16 -9 -6 4 -5 10 3 15 19 12 19 11 13 -6z
m259 -205 c3 -11 1 -18 -4 -14 -5 3 -9 12 -9 20 0 20 7 17 13 -6z m354 -172
c-3 -8 -6 -5 -6 6 -1 11 2 17 5 13 3 -3 4 -12 1 -19z m133 -28 c-18 -12 -30
-13 -30 -2 0 4 10 9 22 9 18 2 20 0 8 -7z m374 -46 c3 -8 2 -12 -4 -9 -6 3
-10 10 -10 16 0 14 7 11 14 -7z m316 4 c0 -4 -4 -8 -9 -8 -6 0 -12 4 -15 8 -3
5 1 9 9 9 8 0 15 -4 15 -9z m2644 -86 c3 -5 -1 -9 -9 -9 -8 0 -12 4 -9 9 3 4
7 8 9 8 2 0 6 -4 9 -8z m-2264 -92 c0 -5 -2 -10 -4 -10 -3 0 -8 5 -11 10 -3 6
-1 10 4 10 6 0 11 -4 11 -10z m2325 -49 c3 -5 0 -13 -6 -17 -7 -4 -9 -3 -5 4
3 5 0 13 -6 15 -9 4 -10 6 -1 6 6 1 14 -3 18 -8z m125 -531 c12 -7 10 -9 -8
-7 -12 0 -22 5 -22 9 0 11 12 10 30 -2z m6 -67 c-2 -9 -10 -17 -19 -19 -22 -3
-22 5 1 22 22 17 21 17 18 -3z m0 -59 c1 -9 0 -13 -4 -10 -3 4 -7 14 -8 22 -1
9 0 13 4 10 3 -4 7 -14 8 -22z m-4 -29 c2 3 5 -1 5 -8 0 -8 -6 -14 -14 -14 -7
0 -11 2 -8 5 2 3 0 14 -6 26 -9 19 -9 19 4 4 8 -10 16 -16 19 -13z m5 -48 c0
-7 -8 -13 -18 -13 -13 0 -15 3 -7 13 6 7 14 13 18 13 3 0 7 -6 7 -13z m-1897
-23 c0 -8 -19 -13 -24 -6 -3 5 1 9 9 9 8 0 15 -2 15 -3z m1897 -10 c-3 -3 -12
-4 -19 -1 -8 3 -5 6 6 6 11 1 17 -2 13 -5z m0 -30 c0 -7 -6 -10 -14 -7 -7 3
-13 8 -13 12 0 4 6 8 13 8 8 0 14 -6 14 -13z m-36 -139 c5 4 6 -1 2 -10 -5
-13 -7 -14 -14 -3 -5 7 -8 18 -8 23 0 6 3 4 6 -3 2 -6 9 -10 14 -7z m-43 -271
c-1 -5 -9 -9 -16 -10 -10 -2 -11 1 -1 12 12 14 24 13 17 -2z m-23 -104 c3 -5
1 -10 -4 -10 -6 0 -11 5 -11 10 0 6 2 10 4 10 3 0 8 -4 11 -10z m-1455 -74 c0
-2 -7 -7 -16 -10 -8 -3 -12 -2 -9 4 6 10 25 14 25 6z m65 -166 c3 -6 -1 -7 -9
-4 -18 7 -21 14 -7 14 6 0 13 -4 16 -10z m1255 -135 c-7 -9 -15 -13 -17 -11
-7 7 7 26 19 26 6 0 6 -6 -2 -15z m-1183 -230 c0 -11 -4 -12 -14 -4 -7 6 -13
13 -13 15 0 2 6 4 13 4 8 0 14 -7 14 -15z m43 -360 c0 -2 -6 -5 -13 -8 -8 -3
-14 1 -14 8 0 7 6 11 14 8 7 -3 13 -6 13 -8z m-19 -68 c-10 -9 -11 -8 -5 6 3
10 9 15 12 12 3 -3 0 -11 -7 -18z m-25 -222 c1 -8 -2 -15 -6 -15 -5 0 -8 9 -7
20 1 21 10 18 13 -5z m-206 -431 c0 -8 -19 -13 -24 -6 -3 5 1 9 9 9 8 0 15 -2
15 -3z m94 -92 c3 -5 -1 -9 -9 -9 -8 0 -12 4 -9 9 3 4 7 8 9 8 2 0 6 -4 9 -8z
m-184 -27 c0 -2 -9 -3 -19 -2 -11 0 -18 5 -15 9 4 6 34 0 34 -7z m-100 -115
c0 -5 -2 -10 -4 -10 -3 0 -8 5 -11 10 -3 6 -1 10 4 10 6 0 11 -4 11 -10z"/>
<path d="M6054 6774 c-18 -14 -18 -15 4 -4 12 6 22 13 22 15 0 8 -5 6 -26 -11z"/>
<path d="M5533 6748 c-2 -18 0 -20 7 -8 12 18 13 30 2 30 -4 0 -9 -10 -9 -22z"/>
<path d="M5886 6695 c-9 -26 -7 -32 5 -12 6 10 9 21 6 23 -2 3 -7 -2 -11 -11z"/>
<path d="M5855 6680 c-3 -5 -1 -10 4 -10 6 0 11 5 11 10 0 6 -2 10 -4 10 -3 0
-8 -4 -11 -10z"/>
<path d="M5326 6671 c-3 -5 1 -11 9 -14 9 -4 12 -1 8 9 -6 16 -10 17 -17 5z"/>
<path d="M5185 6509 c-4 -6 -4 -13 -1 -16 3 -4 6 -1 6 6 0 7 5 9 12 5 7 -4 8
-3 4 4 -9 15 -13 15 -21 1z"/>
<path d="M6186 6461 c-3 -5 2 -15 12 -22 15 -12 16 -12 5 2 -7 9 -10 19 -6 22
3 4 4 7 0 7 -3 0 -8 -4 -11 -9z"/>
<path d="M5060 6350 c-9 -6 -10 -10 -3 -10 6 0 15 5 18 10 8 12 4 12 -15 0z"/>
<path d="M5360 6220 c8 -5 20 -10 25 -10 6 0 3 5 -5 10 -8 5 -19 10 -25 10 -5
0 -3 -5 5 -10z"/>
<path d="M5310 6119 c0 -5 5 -7 10 -4 6 3 10 8 10 11 0 2 -4 4 -10 4 -5 0 -10
-5 -10 -11z"/>
<path d="M6162 6090 c-9 -14 -9 -21 0 -26 6 -4 8 -3 4 4 -3 6 1 15 10 20 9 5
12 12 7 15 -5 3 -14 -3 -21 -13z"/>
<path d="M6160 6026 c0 -2 7 -7 16 -10 8 -3 12 -2 9 4 -6 10 -25 14 -25 6z"/>
<path d="M6135 5880 c3 -5 8 -10 11 -10 2 0 4 5 4 10 0 6 -5 10 -11 10 -5 0
-7 -4 -4 -10z"/>
<path d="M6120 5830 c-8 -5 -10 -10 -5 -10 6 0 17 5 25 10 8 5 11 10 5 10 -5
0 -17 -5 -25 -10z"/>
<path d="M6043 5575 c0 -8 4 -12 9 -9 5 3 6 10 3 15 -9 13 -12 11 -12 -6z"/>
<path d="M3915 5540 c3 -5 8 -10 11 -10 2 0 4 5 4 10 0 6 -5 10 -11 10 -5 0
-7 -4 -4 -10z"/>
<path d="M6130 5509 c0 -5 5 -7 10 -4 6 3 10 8 10 11 0 2 -4 4 -10 4 -5 0 -10
-5 -10 -11z"/>
<path d="M6261 5443 c-1 -18 13 -23 29 -11 12 8 12 9 -2 5 -9 -3 -19 -1 -22 6
-3 9 -5 9 -5 0z"/>
<path d="M3130 5421 c0 -6 4 -13 10 -16 6 -3 7 1 4 9 -7 18 -14 21 -14 7z"/>
<path d="M3430 5421 c0 -7 -7 -11 -14 -8 -10 4 -13 1 -9 -9 5 -14 7 -14 21 0
9 9 13 19 9 22 -4 4 -7 2 -7 -5z"/>
<path d="M3270 4829 c0 -5 5 -7 10 -4 6 3 10 8 10 11 0 2 -4 4 -10 4 -5 0 -10
-5 -10 -11z"/>
<path d="M7075 4781 c-6 -11 13 -26 22 -17 4 3 1 6 -6 6 -7 0 -9 5 -6 10 3 6
4 10 1 10 -3 0 -7 -4 -11 -9z"/>
<path d="M3754 4469 c-4 -7 -3 -9 4 -5 5 3 13 0 15 -6 4 -9 6 -10 6 -1 1 17
-16 25 -25 12z"/>
<path d="M7316 4467 c3 -10 9 -15 12 -12 3 3 0 11 -7 18 -10 9 -11 8 -5 -6z"/>
<path d="M4013 4385 c0 -8 4 -12 9 -9 5 3 6 10 3 15 -9 13 -12 11 -12 -6z"/>
<path d="M4147 4349 c7 -7 15 -10 18 -7 3 3 -2 9 -12 12 -14 6 -15 5 -6 -5z"/>
<path d="M7364 4340 c0 -13 4 -16 10 -10 7 7 7 13 0 20 -6 6 -10 3 -10 -10z"/>
<path d="M4647 4319 c7 -7 15 -10 18 -7 3 3 -2 9 -12 12 -14 6 -15 5 -6 -5z"/>
<path d="M4981 4294 c0 -11 3 -14 6 -6 3 7 2 16 -1 19 -3 4 -6 -2 -5 -13z"/>
<path d="M7426 4218 c3 -5 10 -6 15 -3 13 9 11 12 -6 12 -8 0 -12 -4 -9 -9z"/>
<path d="M7508 4003 c7 -3 16 -2 19 1 4 3 -2 6 -13 5 -11 0 -14 -3 -6 -6z"/>
<path d="M7611 3694 c0 -11 3 -14 6 -6 3 7 2 16 -1 19 -3 4 -6 -2 -5 -13z"/>
<path d="M1986 3642 c-3 -5 1 -9 9 -9 8 0 12 4 9 9 -3 4 -7 8 -9 8 -2 0 -6 -4
-9 -8z"/>
<path d="M7599 3645 c0 -5 -2 -18 -4 -27 -2 -11 2 -15 11 -11 16 6 17 13 4 33
-5 8 -10 11 -11 5z"/>
<path d="M1893 3627 c0 -7 9 -14 19 -14 10 -1 18 3 18 9 0 6 -3 8 -7 5 -3 -4
-11 -2 -18 3 -8 7 -12 6 -12 -3z"/>
<path d="M2085 3620 c-10 -11 -13 -20 -7 -20 6 0 16 9 22 20 6 11 9 20 7 20
-2 0 -12 -9 -22 -20z"/>
<path d="M1725 3621 c-3 -5 -2 -12 3 -15 5 -3 9 1 9 9 0 17 -3 19 -12 6z"/>
<path d="M1776 3622 c-4 -7 -12 -9 -18 -6 -7 5 -9 2 -6 -8 8 -20 -32 -19 -50
2 -11 13 -12 13 -10 0 2 -10 -4 -14 -16 -12 -12 2 -16 -1 -11 -10 3 -7 0 -5
-8 5 -9 10 -18 14 -21 9 -3 -6 -16 -8 -28 -4 -17 4 -20 2 -15 -12 4 -9 3 -15
-2 -11 -5 3 -11 2 -14 -2 -2 -5 -2 -2 -1 5 5 17 -15 15 -22 -2 -3 -8 -12 -17
-20 -20 -11 -4 -10 1 3 22 17 27 17 27 -3 10 -11 -10 -26 -18 -32 -18 -6 0
-13 8 -15 18 -4 15 -5 15 -6 -2 -1 -16 -3 -17 -18 -5 -16 13 -17 12 -4 -3 7
-10 17 -16 21 -13 4 2 16 -5 26 -18 19 -22 19 -22 -1 -6 -22 17 -33 18 -53 5
-7 -4 -16 -5 -19 -2 -4 3 -1 6 5 6 7 0 12 4 12 10 0 15 -28 0 -33 -18 -4 -15
-5 -15 -6 1 -1 19 -16 23 -27 5 -4 -6 -3 -8 3 -5 5 3 10 0 10 -7 0 -8 -6 -12
-14 -9 -7 3 -13 9 -13 14 0 5 -5 9 -11 9 -5 0 -7 -4 -4 -10 3 -5 1 -10 -4 -10
-6 0 -11 6 -12 13 0 6 -4 2 -9 -10 -7 -16 -14 -21 -26 -16 -10 4 -15 2 -11 -4
3 -5 0 -10 -7 -10 -8 0 -12 7 -9 16 3 12 2 12 -7 -2 -6 -9 -8 -22 -5 -27 3 -5
0 -7 -8 -4 -8 3 -18 1 -21 -5 -4 -6 -14 -7 -23 -4 -10 4 -14 2 -10 -4 3 -5 0
-10 -8 -10 -13 0 -13 3 0 17 13 14 13 17 0 17 -8 0 -12 -4 -9 -9 3 -4 0 -8 -5
-8 -6 0 -11 -7 -11 -16 0 -10 -6 -14 -14 -11 -8 3 -17 -1 -20 -9 -3 -8 -12
-14 -21 -14 -8 0 -15 -5 -15 -12 0 -6 -3 -8 -6 -5 -4 4 -2 13 4 20 9 10 8 14
-3 14 -7 0 -14 -3 -13 -6 2 -23 -4 -32 -18 -27 -14 6 -15 4 -4 -9 11 -13 11
-16 -1 -13 -8 2 -13 -3 -11 -10 1 -8 -2 -11 -8 -7 -6 3 -8 10 -5 15 3 5 0 12
-7 16 -7 4 -10 4 -6 -1 4 -4 3 -16 -3 -27 -10 -19 -11 -19 -32 -1 -13 12 -17
13 -12 3 14 -22 15 -39 3 -47 -7 -3 -8 -1 -4 5 5 8 -1 11 -18 10 -13 -1 -22
-6 -20 -10 3 -4 0 -8 -6 -8 -6 0 -9 -4 -6 -9 9 -14 -41 -54 -59 -47 -9 3 -18
0 -21 -9 -4 -8 -11 -12 -16 -9 -6 4 -5 -4 2 -16 7 -12 8 -20 2 -16 -5 3 -13
-1 -16 -10 -5 -14 -9 -14 -23 -3 -12 10 -14 10 -9 2 4 -7 3 -13 -3 -13 -6 0
-7 -7 -4 -17 5 -12 3 -14 -7 -8 -10 6 -12 4 -7 -7 4 -12 0 -15 -19 -13 -14 1
-22 0 -19 -3 3 -3 -4 -15 -15 -27 -12 -13 -22 -31 -23 -42 -1 -14 -6 -19 -19
-15 -10 2 -18 -1 -18 -7 0 -7 4 -10 8 -7 5 3 9 -1 9 -8 0 -8 -7 -12 -14 -9 -8
3 -13 2 -12 -3 4 -17 -13 -44 -24 -37 -6 4 -8 0 -5 -9 6 -14 -17 -42 -37 -45
-5 -1 -11 -6 -13 -12 -2 -7 4 -9 15 -5 14 5 15 4 3 -4 -10 -8 -19 -7 -29 1
-12 10 -13 9 -3 -9 9 -17 9 -24 -3 -34 -8 -6 -20 -8 -27 -4 -7 4 -4 -3 7 -16
l20 -23 -23 12 c-12 7 -22 8 -21 4 4 -16 -13 -43 -24 -36 -6 4 -7 1 -2 -7 6
-10 12 -7 25 10 13 17 19 20 25 10 5 -8 4 -11 -3 -6 -6 3 -13 -3 -17 -14 -6
-19 -16 -24 -40 -21 -5 1 -1 -6 10 -15 20 -16 19 -16 -5 -9 -20 6 -22 5 -13
-5 14 -15 6 -40 -13 -40 -8 0 -14 -9 -14 -21 0 -11 -4 -17 -10 -14 -5 3 -10 1
-10 -4 0 -6 4 -11 9 -11 16 0 5 -32 -15 -42 -18 -9 -18 -9 0 6 11 9 15 16 9
16 -6 0 -16 -6 -22 -14 -10 -11 -8 -17 6 -26 16 -10 16 -11 -5 -7 -12 3 -22 1
-22 -4 0 -5 4 -9 9 -9 5 0 11 -6 14 -13 3 -8 -1 -14 -9 -14 -7 0 -11 4 -8 9 3
4 -2 5 -11 1 -13 -4 -14 -8 -4 -14 7 -4 14 -14 15 -23 2 -13 -2 -14 -19 -4
-21 11 -21 10 -5 -9 10 -11 18 -24 18 -29 0 -5 -5 -2 -10 6 -8 13 -13 11 -32
-9 -13 -14 -15 -19 -5 -11 15 11 20 11 30 0 8 -8 8 -11 1 -7 -14 8 -37 -17
-41 -45 -3 -18 -1 -19 14 -7 17 13 17 13 3 -5 -8 -11 -14 -21 -12 -23 8 -12
-1 -13 -15 -2 -15 13 -15 12 -4 -8 7 -15 8 -23 1 -23 -5 0 -10 -4 -10 -10 0
-5 8 -7 18 -4 16 5 16 5 -1 -6 -9 -6 -14 -16 -11 -22 4 -7 2 -8 -5 -4 -6 4 -9
11 -6 16 3 5 2 11 -3 14 -12 7 -12 -26 0 -40 5 -8 2 -18 -9 -29 -16 -17 -16
-18 3 -33 12 -10 14 -13 3 -9 -9 3 -21 -3 -28 -15 -7 -11 -8 -17 -2 -13 6 3
11 2 11 -4 0 -5 -6 -12 -12 -14 -10 -4 -9 -8 2 -16 13 -9 13 -11 -2 -11 -23 0
-23 -8 -1 -33 18 -20 18 -20 -9 -3 l-27 18 5 -28 c4 -21 2 -25 -8 -18 -8 5 -7
2 2 -6 8 -9 16 -22 18 -30 3 -11 0 -11 -15 1 -17 13 -17 13 0 -14 18 -28 18
-28 -3 -17 -13 7 -20 8 -16 2 3 -6 3 -12 -1 -15 -5 -2 -2 -2 4 -1 16 4 16 -1
2 -27 -6 -11 -15 -17 -22 -12 -9 5 -9 3 -1 -8 13 -18 16 -61 3 -54 -5 4 -5 -5
1 -21 10 -25 9 -26 -7 -13 -17 13 -17 12 0 -14 l18 -28 -23 12 c-21 11 -22 11
-9 -5 8 -10 15 -26 16 -36 1 -15 -2 -17 -17 -9 -22 12 -23 6 -2 -15 10 -10 11
-16 3 -16 -8 0 -8 -4 1 -15 11 -13 10 -14 -3 -10 -8 4 -18 1 -23 -6 -4 -7 -3
-10 4 -5 7 4 10 -3 8 -21 -1 -16 -8 -27 -15 -25 -7 1 -10 -2 -6 -8 3 -6 10 -8
14 -6 4 3 13 0 21 -6 12 -8 12 -9 -2 -4 -17 5 -23 -8 -19 -41 1 -6 -3 -14 -9
-18 -6 -3 -7 0 -4 9 3 9 2 16 -3 16 -5 0 -9 -9 -10 -20 -1 -11 2 -20 7 -20 4
0 10 -6 13 -13 3 -8 -1 -14 -9 -14 -7 0 -10 5 -7 11 4 6 -1 5 -10 -3 -20 -16
-22 -22 -4 -19 7 2 11 -6 9 -22 -2 -20 -1 -22 7 -10 6 8 11 10 11 4 0 -6 -7
-17 -15 -24 -12 -10 -13 -15 -3 -28 11 -13 10 -14 -9 -3 -19 10 -22 9 -17 -4
4 -8 10 -15 16 -15 5 0 6 -5 3 -10 -4 -6 -10 -8 -15 -5 -5 3 -12 0 -16 -6 -4
-8 -3 -9 4 -5 7 4 12 2 12 -4 0 -6 5 -8 12 -4 7 4 8 3 4 -5 -4 -6 -13 -8 -19
-4 -7 4 -7 0 1 -10 12 -14 11 -16 -5 -12 -11 2 -20 -2 -20 -9 0 -8 10 -12 24
-10 20 2 22 0 12 -12 -6 -7 -15 -12 -19 -9 -5 3 -11 1 -15 -5 -3 -5 2 -10 12
-11 14 0 12 -2 -6 -10 -22 -9 -23 -11 -7 -27 9 -10 13 -22 9 -26 -4 -4 -1 -12
7 -17 13 -9 13 -10 -1 -6 -9 3 -22 1 -30 -4 -11 -7 -11 -9 4 -9 9 0 17 -5 17
-11 0 -5 -6 -7 -12 -3 -8 5 -7 0 2 -11 9 -11 10 -16 3 -11 -8 4 -13 2 -13 -8
0 -8 6 -17 13 -20 6 -3 3 -4 -8 -1 -16 4 -21 0 -23 -19 -1 -20 2 -24 19 -21
20 4 20 3 5 -14 -17 -19 -22 -36 -7 -27 10 7 9 -20 -2 -30 -4 -4 -2 -13 5 -21
8 -11 7 -12 -6 -7 -10 4 -16 1 -16 -9 0 -8 -6 -20 -14 -26 -14 -12 -16 -35 -3
-47 12 -12 8 -26 -5 -18 -7 4 -8 3 -4 -5 12 -18 28 -1 23 25 -2 13 2 32 9 41
12 17 12 17 11 -2 -1 -13 3 -19 13 -16 8 2 23 3 33 3 9 0 18 6 18 14 3 28 4
32 13 41 6 5 6 2 1 -7 -7 -13 2 -7 45 29 3 2 -4 1 -15 -2 -20 -7 -20 -7 -1 8
13 10 15 15 6 15 -7 0 -10 3 -6 7 4 5 14 -1 22 -11 14 -20 14 -20 15 0 1 10 1
22 0 27 -1 7 15 11 32 8 5 -1 5 9 2 21 -7 23 -7 23 10 3 16 -20 16 -20 12 2
-3 15 -1 20 9 16 8 -3 14 1 14 11 0 9 5 16 11 16 5 0 8 -4 5 -8 -3 -5 1 -9 9
-9 10 0 11 5 4 19 -6 12 -6 18 1 18 5 0 10 -4 10 -9 0 -11 26 -8 37 4 4 4 3 5
-3 2 -7 -4 -14 0 -17 7 -4 10 0 13 14 11 18 -4 19 -2 7 12 -12 15 -11 15 12 3
23 -12 24 -12 12 3 -12 14 -11 16 6 12 16 -3 20 1 17 15 -3 13 1 17 11 13 10
-3 12 0 9 10 -4 10 1 14 17 14 29 0 58 12 58 25 0 5 -4 7 -9 3 -5 -3 -13 0
-17 6 -4 7 -3 9 4 5 6 -3 18 2 28 11 17 17 17 17 11 1 -3 -10 -1 -20 5 -24 7
-4 8 -3 4 4 -4 7 -2 12 4 12 6 0 8 5 4 12 -5 8 -2 9 9 5 10 -3 17 -2 17 3 0 6
-5 10 -12 10 -6 0 -3 6 8 14 10 8 21 12 24 10 2 -3 -2 -9 -9 -13 -8 -5 -9 -11
-3 -15 5 -3 17 9 26 27 8 17 16 28 16 22 0 -5 7 -1 15 9 8 11 15 16 15 11 0
-5 -7 -16 -16 -26 -12 -14 -13 -18 -2 -25 7 -4 10 -4 6 1 -10 11 32 46 45 38
6 -3 7 -1 3 6 -4 6 -11 9 -15 7 -4 -3 -8 1 -8 9 0 10 6 10 26 -3 25 -16 25
-16 12 1 -15 18 -2 24 16 6 7 -7 10 -3 8 15 -2 15 1 24 6 20 5 -3 7 -9 4 -14
-3 -5 -1 -11 4 -14 5 -4 8 4 7 17 -2 16 3 23 15 24 12 1 16 -3 13 -15 -5 -15
-4 -15 6 1 6 9 15 15 19 13 4 -3 8 1 8 9 0 8 -5 15 -10 15 -6 0 -8 2 -5 5 9
10 38 -7 31 -18 -4 -6 -1 -7 6 -3 7 5 10 10 7 13 -3 3 -1 14 4 24 11 19 50 22
62 4 5 -6 8 -3 8 7 0 9 -6 19 -12 21 -7 3 5 4 28 3 25 -1 41 3 41 10 0 6 -10
10 -21 7 -20 -3 -20 -3 -1 6 14 6 23 5 30 -4 8 -10 13 -9 25 3 13 14 12 15 -3
9 -12 -4 -16 -3 -11 4 3 6 15 8 26 6 15 -4 18 -1 14 16 -3 12 -3 16 0 10 3 -7
12 -13 20 -13 9 0 12 5 9 10 -3 5 1 10 9 10 10 0 13 -6 9 -17 -5 -15 -3 -14
10 2 8 11 13 24 10 29 -4 5 -1 6 5 2 6 -3 13 -2 17 4 4 6 10 8 15 5 5 -3 13 3
19 12 6 10 11 13 11 7 0 -13 -30 -41 -39 -36 -3 2 -7 -2 -9 -10 -2 -8 0 -9 5
-3 4 6 15 11 23 13 8 2 28 18 44 35 17 18 27 24 23 15 -4 -12 -1 -16 12 -15
11 1 17 7 14 14 -3 7 -1 13 5 13 6 0 13 -6 15 -12 4 -10 6 -10 6 0 1 6 10 12
20 12 11 0 27 10 35 22 19 26 21 16 4 -15 -10 -19 -9 -20 4 -10 8 7 19 9 23 5
5 -4 5 1 2 11 -4 10 -3 16 2 12 5 -3 12 -1 16 5 3 5 12 10 18 10 8 0 8 -3 -1
-9 -11 -7 -10 -9 3 -14 9 -4 14 -3 11 2 -8 12 45 46 53 34 9 -13 48 -10 63 6
11 12 11 13 -1 6 -10 -6 -12 -4 -7 4 6 9 11 9 22 0 8 -6 18 -9 21 -5 4 4 1 11
-7 16 -11 7 -10 9 7 7 12 0 19 -5 16 -11 -4 -5 -1 -6 6 -2 7 5 10 15 7 23 -4
8 -1 11 5 8 6 -4 8 -13 5 -20 -3 -8 3 -19 12 -27 15 -12 16 -11 3 5 -12 15
-11 17 9 17 16 0 21 4 16 16 -5 14 -4 15 9 4 8 -7 15 -9 15 -4 0 5 8 0 16 -11
16 -20 16 -20 10 2 -4 13 -2 24 6 29 7 4 10 4 6 -1 -11 -12 11 -35 28 -28 8 3
14 10 14 15 0 6 -6 5 -15 -2 -10 -9 -15 -9 -15 -1 0 6 5 11 11 11 5 0 7 6 3
13 -5 9 -4 9 6 0 11 -10 18 -9 33 4 10 10 18 13 17 8 -5 -21 1 -27 14 -16 11
9 16 9 22 0 5 -8 3 -9 -6 -4 -9 6 -11 4 -5 -4 5 -9 10 -10 18 -2 13 13 41 15
33 3 -6 -10 30 -9 40 1 12 12 26 8 18 -5 -6 -10 -5 -10 7 -1 12 10 18 10 29 0
12 -10 12 -9 3 3 -9 11 -8 20 4 35 15 19 15 19 8 -5 -6 -20 -5 -23 6 -13 22
22 33 14 13 -9 -12 -14 -13 -18 -3 -10 9 6 20 8 24 4 5 -4 4 -1 0 7 -6 11 -4
13 10 7 15 -5 16 -4 6 8 -9 11 -9 16 0 22 8 4 9 3 5 -4 -9 -16 7 -15 22 0 9 9
12 9 12 0 0 -7 -4 -12 -8 -12 -5 0 -9 -7 -9 -15 0 -12 3 -13 16 -3 25 20 61
39 59 31 -2 -5 7 -18 20 -30 25 -26 31 -19 6 8 -12 13 -12 19 -3 25 8 5 10 3
4 -6 -6 -9 -1 -10 16 -5 17 4 20 3 10 -3 -14 -10 -5 -19 19 -17 8 0 19 -4 23
-10 5 -6 7 -4 4 5 -2 8 -9 14 -15 13 -7 -2 -9 4 -5 14 4 11 8 13 11 5 2 -7 10
-12 18 -12 9 0 12 -5 8 -12 -4 -7 -4 -10 1 -6 4 4 15 2 23 -5 10 -8 13 -8 9
-1 -4 7 0 15 9 18 8 3 13 2 10 -2 -2 -4 0 -14 6 -22 8 -12 9 -12 4 3 -3 9 -1
17 5 17 6 0 8 4 4 9 -3 5 0 13 6 17 7 4 9 3 6 -3 -4 -6 0 -19 9 -29 14 -18 15
-18 10 6 -3 14 -3 19 0 12 3 -6 10 -9 16 -6 6 4 8 -2 3 -17 -3 -13 -3 -19 2
-13 13 18 43 25 43 10 0 -7 7 -13 15 -13 11 0 12 4 3 14 -6 7 -8 16 -4 20 3 3
6 1 6 -5 0 -7 7 -12 16 -12 9 0 13 5 9 13 -4 6 3 1 14 -12 16 -17 21 -19 21
-8 0 24 16 29 31 9 13 -16 13 -16 -5 -2 -18 14 -19 13 -14 -1 4 -9 2 -22 -3
-28 -6 -8 -5 -8 3 -1 18 15 51 13 42 -2 -6 -10 -4 -10 7 -2 22 17 57 15 62 -4
4 -15 5 -15 6 0 1 17 2 17 21 1 10 -9 29 -17 41 -18 20 -2 20 -1 5 10 -15 12
-15 13 1 19 10 4 14 4 11 0 -4 -3 0 -13 8 -21 8 -8 11 -19 8 -25 -4 -6 -2 -8
4 -5 12 8 11 25 -3 47 -8 13 -7 13 8 1 9 -7 14 -18 11 -23 -4 -6 9 -8 32 -6
33 2 39 0 45 -22 l7 -25 2 25 c2 16 4 19 7 9 5 -20 40 -32 50 -17 3 7 1 8 -5
4 -8 -4 -10 -2 -6 8 5 12 9 11 25 -5 11 -11 24 -17 29 -14 5 3 11 1 15 -5 4
-6 11 -7 17 -4 6 4 9 3 6 -2 -3 -5 0 -15 8 -22 8 -7 14 -9 14 -3 0 5 7 12 16
15 14 5 15 4 4 -9 -9 -11 -9 -15 -1 -15 7 0 9 -5 5 -12 -4 -7 -3 -8 5 -4 6 4
9 13 5 19 -3 7 1 3 10 -7 8 -10 13 -23 9 -29 -3 -6 -1 -7 6 -3 6 4 9 11 6 16
-3 5 0 12 7 16 7 4 10 4 6 -1 -11 -12 18 -35 46 -35 14 0 26 -5 26 -11 0 -5 5
-7 12 -3 8 5 9 2 5 -9 -7 -18 8 -24 18 -7 7 11 45 -9 45 -24 0 -5 -9 -1 -20 9
-11 10 -20 13 -20 8 0 -14 30 -27 54 -24 12 2 16 -1 11 -10 -6 -8 -4 -10 6 -3
22 14 36 13 36 -2 0 -9 -4 -10 -11 -5 -7 6 -17 3 -26 -7 -13 -14 -12 -15 4 -9
9 4 27 2 38 -4 11 -6 18 -7 15 -2 -3 5 3 9 13 10 10 1 21 -5 24 -14 5 -13 4
-14 -9 -3 -8 7 -15 8 -15 2 0 -10 22 -23 53 -29 10 -1 27 -12 39 -23 19 -18
45 -24 86 -23 7 1 11 -1 8 -4 -9 -9 23 -34 40 -31 9 2 19 -4 21 -12 4 -13 3
-13 -7 0 -10 13 -11 13 -7 0 2 -8 12 -15 23 -15 10 1 25 -8 32 -20 10 -14 12
-15 8 -3 -3 10 0 20 6 24 7 4 8 3 4 -4 -4 -7 -2 -12 5 -12 7 0 9 -3 6 -7 -12
-11 27 -32 40 -22 8 7 11 3 9 -15 -2 -14 1 -23 5 -20 5 3 9 12 9 20 0 8 5 12
10 9 6 -4 8 -16 5 -28 -4 -14 -3 -17 2 -9 7 9 14 7 31 -8 12 -12 22 -17 22
-12 0 5 -10 16 -22 24 -18 12 -19 16 -7 23 8 4 11 5 7 0 -5 -5 1 -14 12 -22
11 -8 20 -23 20 -34 0 -11 4 -18 10 -14 5 3 8 11 6 18 -1 7 -1 9 1 4 3 -4 9
-5 14 -2 5 4 6 -1 3 -10 -4 -11 -2 -14 9 -10 8 4 21 -1 30 -9 8 -8 17 -13 20
-10 3 3 4 -3 3 -13 -1 -13 5 -17 22 -15 14 2 21 -1 20 -10 -2 -8 5 -12 20 -10
15 2 22 -2 22 -13 0 -11 7 -14 25 -11 15 3 23 1 20 -5 -4 -5 -11 -6 -17 -3 -7
4 -8 2 -4 -4 4 -6 13 -9 20 -6 8 3 16 -4 19 -17 4 -13 9 -20 13 -16 4 4 16 0
26 -9 14 -13 21 -14 32 -5 19 16 32 -4 16 -24 -8 -10 -8 -15 1 -21 7 -4 9 -3
6 3 -4 6 -1 16 7 22 14 11 26 5 26 -13 0 -6 -5 -4 -10 4 -6 9 -10 10 -10 3 0
-16 21 -28 44 -24 12 2 16 -2 11 -11 -3 -7 1 -4 10 7 16 19 16 19 10 -10 l-6
-30 16 25 c15 24 16 24 10 2 -5 -16 -3 -22 7 -20 7 2 12 -4 10 -12 -1 -10 3
-9 14 5 14 16 16 17 11 3 -7 -19 15 -21 41 -5 7 5 12 4 12 -2 0 -6 -4 -12 -10
-12 -5 -1 -14 -2 -19 -3 -5 0 -13 -5 -18 -10 -5 -5 -3 -6 5 -2 7 4 12 2 12 -6
0 -9 3 -9 10 2 9 14 15 7 10 -15 -1 -5 4 -4 11 2 7 7 18 13 23 13 6 0 4 -5 -4
-10 -13 -9 -13 -10 1 -10 8 0 20 5 27 12 8 8 12 9 12 1 0 -6 -6 -13 -12 -15
-9 -3 -7 -10 7 -24 17 -17 18 -17 12 -1 -3 9 -2 17 3 17 6 0 10 -5 10 -11 0
-5 5 -7 10 -4 6 3 10 1 10 -5 0 -6 4 -8 10 -5 6 4 7 -1 3 -11 -5 -13 -3 -15 8
-8 24 14 39 13 52 -5 15 -23 55 -44 67 -36 5 3 12 0 16 -6 4 -8 9 -7 15 2 7
12 9 12 9 0 0 -8 6 -11 16 -7 9 3 12 2 9 -4 -4 -6 -14 -9 -22 -8 -9 2 -18 -4
-20 -12 -3 -9 -1 -11 4 -5 12 15 46 12 63 -5 8 -9 11 -11 7 -4 -5 7 -3 15 4
20 7 4 9 3 6 -3 -4 -6 0 -14 9 -17 8 -3 13 -10 10 -14 -3 -5 1 -9 9 -9 8 0 12
4 9 8 -2 4 0 10 6 14 5 3 10 -1 10 -10 0 -12 8 -15 35 -12 19 3 32 0 29 -5 -3
-5 -12 -7 -20 -4 -22 8 -17 -2 7 -15 15 -8 19 -8 15 0 -4 6 0 11 8 11 9 0 16
5 16 12 0 6 3 8 6 5 4 -4 1 -13 -6 -22 -11 -13 -10 -14 4 -9 9 3 16 11 16 17
0 6 3 7 6 4 4 -4 1 -14 -6 -22 -11 -14 -10 -14 13 -6 21 8 28 7 36 -7 6 -9 11
-12 11 -5 0 6 9 11 19 10 11 0 17 -5 15 -9 -3 -5 -10 -5 -16 -2 -7 4 -8 2 -4
-4 4 -6 14 -8 23 -5 10 4 14 2 10 -4 -3 -5 1 -10 9 -10 10 0 11 4 4 11 -15 15
-13 31 3 19 18 -14 59 -14 50 0 -4 7 2 5 13 -3 10 -8 21 -16 23 -17 2 -1 -1
-9 -7 -16 -9 -10 -8 -14 3 -14 8 0 12 4 9 9 -3 4 0 8 6 8 6 0 9 4 5 9 -3 5 -1
12 4 16 6 3 8 -6 6 -22 -2 -16 -2 -22 1 -15 7 16 44 16 44 0 0 -10 2 -10 9 0
4 8 11 13 15 12 4 -1 12 1 19 4 6 3 0 3 -14 1 -15 -2 -26 2 -26 9 0 8 11 10
29 8 16 -2 50 4 76 14 26 10 51 17 56 16 5 -2 6 4 3 12 -4 9 -1 18 5 22 6 4 8
3 5 -3 -7 -11 22 -28 31 -18 3 3 0 5 -6 5 -7 0 -12 7 -12 16 0 14 1 14 16 0 8
-9 20 -16 27 -16 6 0 2 7 -9 16 -18 15 -18 15 0 10 13 -5 17 -2 13 8 -5 12 -1
13 19 6 19 -7 23 -7 18 2 -5 8 -2 9 11 4 16 -6 16 -4 4 11 -8 9 -9 14 -2 10 6
-4 14 -3 17 2 3 5 15 7 27 4 15 -4 22 0 26 16 3 11 9 18 14 15 5 -3 7 -10 4
-15 -10 -15 2 -10 16 8 8 9 9 14 3 10 -6 -3 -11 -1 -11 6 0 7 9 13 19 13 11 0
17 -5 13 -14 -2 -7 0 -10 5 -7 6 3 10 12 10 20 0 8 10 12 27 10 24 -2 25 -1
10 10 -16 11 -16 13 -1 19 22 8 26 8 19 -4 -10 -16 1 -11 16 7 12 15 12 16 -1
8 -12 -6 -13 -6 -2 6 11 12 14 12 23 -1 8 -12 10 -11 8 5 -2 33 0 38 16 25 12
-10 14 -8 10 9 -2 14 1 18 11 14 7 -3 11 -10 7 -16 -3 -6 -1 -7 6 -3 9 6 9 12
-1 24 -7 10 -8 14 -3 9 4 -4 16 5 26 19 10 16 19 22 23 15 4 -6 2 -11 -4 -11
-6 0 -8 -5 -4 -11 10 -16 22 8 18 35 -2 11 -2 15 2 9 3 -7 10 -13 15 -13 6 0
8 4 5 9 -9 13 21 34 36 25 8 -5 8 -1 -2 11 -8 10 -10 16 -3 12 14 -9 45 2 38
13 -3 4 2 13 9 20 8 6 13 20 11 31 -2 11 0 17 6 14 5 -4 7 -10 4 -15 -3 -5 0
-12 6 -16 7 -4 9 -3 5 4 -3 6 2 16 11 22 17 11 17 11 1 6 -12 -3 -18 0 -18 10
0 9 5 12 12 8 7 -5 9 0 6 14 -4 15 -2 19 8 15 8 -3 11 -10 7 -16 -3 -6 -1 -7
6 -3 9 6 9 11 -1 24 -10 12 -10 14 0 8 7 -4 12 -1 12 9 0 9 5 13 10 10 6 -3
11 0 11 7 1 7 2 18 4 23 1 6 3 16 3 24 2 11 5 11 19 0 16 -13 16 -12 0 14 -18
28 -18 28 1 18 18 -9 19 -7 18 31 -1 29 3 43 14 45 13 4 13 3 0 -6 -11 -8 -12
-11 -2 -11 8 0 10 -5 6 -12 -4 -7 -3 -9 2 -5 8 8 9 14 16 99 1 25 6 44 11 41
4 -2 5 -8 2 -13 -3 -5 0 -12 6 -16 7 -4 9 -3 5 4 -3 6 -2 13 4 17 5 3 10 12
10 18 0 7 -4 6 -11 -3 -9 -12 -10 -11 -6 7 3 13 1 26 -4 29 -6 3 -5 11 2 20 6
8 8 14 4 14 -4 0 -3 6 4 13 8 10 7 17 -2 27 -9 10 -9 11 1 6 6 -4 12 -2 12 4
0 6 6 8 13 4 6 -4 9 -4 5 1 -4 4 -2 15 4 23 17 20 18 39 2 39 -8 0 -14 -4 -14
-9 0 -4 5 -8 11 -8 5 0 7 -5 3 -11 -5 -8 -9 -8 -14 1 -5 9 -9 9 -14 1 -4 -6
-2 -11 5 -11 7 0 10 -3 6 -6 -3 -3 -11 -3 -16 1 -8 4 -7 13 4 27 11 17 12 25
2 37 -8 10 -8 13 -1 8 19 -11 25 22 6 33 -15 9 -14 10 5 5 18 -5 21 -2 19 20
-2 14 2 25 8 25 6 0 5 4 -3 9 -11 7 -12 13 -3 24 9 11 9 14 -3 14 -8 0 -11 -5
-8 -10 3 -6 1 -7 -5 -3 -9 5 -8 16 2 41 9 21 11 37 5 41 -5 3 -8 0 -7 -7 2 -7
-6 -14 -17 -16 l-20 -3 20 9 c11 5 16 10 11 10 -5 1 1 13 15 28 l24 26 -25
-16 c-28 -20 -40 -21 -40 -6 0 5 4 8 9 5 5 -3 15 1 22 10 11 13 10 15 -3 12
-9 -1 -16 2 -15 7 1 6 7 9 14 9 11 -1 10 26 -2 46 -4 6 -1 19 6 28 11 14 11
15 -1 5 -18 -17 -35 -17 -23 0 13 15 13 47 1 47 -5 0 -7 -10 -3 -22 5 -20 5
-21 -5 -5 -9 14 -9 22 1 33 10 12 9 13 -7 7 -17 -6 -17 -5 -5 11 12 14 12 19
1 29 -10 9 -11 9 -6 0 5 -9 2 -11 -9 -7 -14 6 -14 8 2 19 10 8 15 17 11 21 -4
4 -2 14 5 22 8 11 8 14 0 9 -6 -4 -13 -1 -16 5 -3 10 -7 10 -21 -1 -14 -12
-16 -12 -10 3 3 9 12 16 20 16 8 0 14 5 14 11 0 6 -9 8 -22 4 -18 -5 -20 -4
-8 4 13 10 13 12 0 21 -8 5 -11 10 -6 10 5 0 1 9 -9 20 -10 11 -15 23 -12 27
4 3 7 0 8 -8 0 -8 4 -5 8 6 9 23 3 47 -10 39 -5 -3 -9 0 -9 6 0 6 -4 9 -8 6
-4 -2 -9 4 -9 15 -1 10 2 19 8 19 5 0 8 -5 6 -11 -1 -6 5 -14 13 -16 13 -4 13
-3 0 6 -8 6 -11 11 -5 11 5 0 4 5 -2 11 -6 6 -9 19 -6 28 4 13 2 13 -7 -1 -6
-10 -16 -18 -23 -18 -8 0 -7 3 2 9 12 8 12 12 -2 26 -20 20 -23 32 -4 16 10
-8 14 -7 14 4 0 8 -5 15 -10 15 -5 0 -5 6 2 13 8 11 4 19 -16 38 -21 18 -24
19 -13 4 14 -20 14 -20 -6 -1 -14 14 -16 20 -6 23 10 4 9 8 -5 18 -15 11 -16
15 -3 31 8 10 10 15 3 11 -14 -9 -43 2 -43 15 0 6 6 6 14 -1 11 -9 16 -9 22 1
4 7 4 10 -1 6 -9 -9 -35 16 -35 34 0 10 -3 9 -10 -2 -5 -8 -10 -10 -10 -4 0 6
3 14 7 18 10 10 11 46 1 40 -4 -3 -8 0 -8 6 0 6 -4 8 -10 5 -5 -3 -10 -1 -10
5 0 6 -4 9 -9 5 -6 -3 -8 6 -5 21 3 19 1 24 -8 18 -10 -5 -11 -4 0 7 17 19 15
29 -7 29 -24 0 -31 19 -18 45 9 18 9 19 -6 6 -11 -9 -17 -10 -18 -2 -4 32 -6
36 -18 33 -7 -1 -10 2 -6 8 3 5 1 10 -6 10 -7 0 -10 3 -7 6 4 3 19 -2 35 -12
l28 -17 -29 26 c-19 18 -26 32 -22 43 5 14 4 15 -8 5 -11 -9 -15 -8 -20 4 -3
8 -3 22 0 30 4 8 1 15 -6 15 -6 0 -8 -4 -5 -10 3 -6 -1 -7 -10 -4 -14 6 -14 8
1 19 14 9 14 14 4 20 -9 6 -11 4 -6 -6 4 -8 0 -5 -8 6 -9 11 -14 25 -11 33 2
7 0 10 -5 7 -6 -3 -10 -1 -10 5 0 6 -6 8 -12 5 -7 -4 -4 1 7 11 17 14 17 16 3
11 -17 -6 -23 3 -19 26 1 5 -3 6 -9 2 -5 -3 -10 1 -10 10 0 9 -5 13 -11 10 -6
-4 -10 -1 -8 6 3 27 -1 40 -11 34 -5 -3 -10 -1 -10 5 0 6 -5 8 -12 4 -7 -4 -8
-3 -4 5 4 6 12 9 17 6 5 -4 9 -1 9 6 0 7 -10 9 -25 7 -17 -4 -23 -2 -17 6 13
19 8 51 -8 51 -8 1 -18 -4 -22 -10 -5 -6 -8 -6 -8 2 0 7 8 17 18 23 14 9 13
10 -8 4 -14 -3 -22 -3 -18 1 4 5 3 14 -4 22 -6 7 -8 16 -4 20 3 3 6 1 6 -5 0
-7 6 -12 13 -12 6 1 -1 12 -18 26 -16 15 -24 23 -16 19 10 -6 12 -4 7 4 -5 7
-15 10 -25 7 -11 -4 -11 -2 4 10 16 13 16 15 3 11 -11 -4 -23 2 -34 16 -13 17
-15 18 -10 4 4 -13 2 -17 -6 -14 -13 4 -37 -20 -38 -37 0 -6 7 -1 15 10 14 18
14 17 5 -10 -9 -24 -8 -27 3 -17 12 9 14 6 13 -18 -1 -16 -4 -27 -8 -24 -5 2
-8 -1 -8 -7 0 -6 -6 -8 -12 -4 -8 4 -10 3 -5 -2 5 -5 14 -9 20 -9 7 0 13 -10
13 -22 1 -12 -3 -20 -8 -17 -4 3 -6 9 -4 13 3 4 -2 8 -10 8 -10 0 -11 -4 -4
-11 13 -13 13 -29 0 -21 -6 4 -7 -1 -3 -11 5 -13 3 -15 -8 -10 -8 4 -5 0 5 -8
18 -14 15 -20 -6 -17 -4 0 -4 -7 -1 -17 3 -9 3 -14 -2 -10 -4 4 -15 3 -22 -4
-12 -10 -11 -14 9 -24 13 -8 17 -13 10 -14 -7 0 -11 -4 -7 -9 3 -6 -4 -8 -15
-6 -11 2 -18 0 -15 -5 3 -4 2 -10 -2 -13 -5 -2 -3 -2 4 -1 7 2 15 -1 18 -7 4
-5 3 -9 -2 -8 -20 4 -24 -2 -12 -18 13 -15 12 -15 -10 -4 -19 11 -22 11 -16 0
6 -8 4 -11 -7 -7 -11 5 -14 -2 -13 -28 0 -22 -4 -34 -13 -34 -8 0 -10 5 -6 13
5 8 2 7 -10 -2 -12 -10 -14 -17 -6 -25 5 -5 10 -15 10 -20 0 -6 -5 -4 -10 4
-6 10 -10 11 -10 3 0 -7 -5 -13 -11 -13 -5 0 -7 5 -3 12 4 6 3 8 -4 4 -6 -3
-9 -21 -7 -39 3 -20 1 -27 -4 -19 -11 19 -15 19 -35 3 -13 -11 -14 -16 -4 -29
12 -14 10 -14 -12 -2 -23 12 -24 12 -11 -4 12 -14 12 -16 -3 -10 -10 4 -16 1
-16 -9 0 -9 -5 -19 -12 -23 -8 -5 -9 -2 -5 9 3 9 1 19 -5 23 -6 4 -9 3 -6 -2
3 -5 -12 -20 -33 -34 -21 -13 -39 -28 -39 -34 0 -5 9 -1 20 9 19 17 20 17 20
1 0 -9 -4 -15 -9 -11 -5 3 -12 1 -16 -5 -4 -6 -11 -7 -17 -4 -8 5 -9 1 -5 -12
7 -19 7 -19 -8 0 -8 10 -11 24 -8 30 4 6 -3 2 -15 -8 -15 -13 -21 -27 -17 -40
3 -12 2 -15 -1 -8 -3 6 -11 9 -16 6 -6 -4 -8 -3 -5 2 3 5 -2 10 -12 10 -10 0
-18 -6 -18 -13 0 -7 5 -9 11 -6 6 3 5 0 -2 -8 -11 -12 -14 -12 -21 0 -7 11
-13 11 -32 1 -17 -10 -24 -10 -27 -1 -2 6 -8 11 -14 11 -7 0 -6 -5 1 -14 10
-12 8 -17 -11 -27 -20 -11 -22 -11 -10 3 10 13 10 18 1 24 -7 4 -9 3 -5 -4 8
-13 -21 -23 -52 -17 -13 2 -20 0 -17 -6 4 -5 11 -6 17 -3 6 4 8 2 4 -4 -3 -5
0 -13 6 -15 9 -4 10 -6 1 -6 -6 -1 -15 4 -18 9 -3 6 -11 10 -16 10 -6 0 -7 -5
-3 -11 4 -7 -1 -7 -15 1 -37 20 -64 20 -85 2 -11 -9 -16 -11 -12 -4 8 14 -10
17 -19 2 -11 -18 -36 1 -29 24 5 20 5 19 -11 -3 -10 -12 -20 -19 -24 -14 -14
19 -58 32 -71 20 -10 -9 -11 -7 -6 13 3 14 3 19 0 12 -3 -6 -11 -9 -16 -6 -7
4 -8 2 -4 -4 5 -8 2 -10 -8 -6 -9 3 -13 11 -9 17 3 5 2 7 -4 4 -6 -4 -19 0
-29 7 -14 11 -22 11 -32 3 -15 -12 -35 9 -25 28 4 5 2 7 -2 2 -5 -4 -16 0 -26
9 -11 10 -19 12 -24 5 -3 -6 -11 -11 -16 -11 -6 0 -7 5 -3 11 4 8 -1 9 -17 5
-13 -3 -18 -3 -11 0 17 8 15 25 -3 18 -12 -5 -14 -2 -8 12 6 17 5 17 -10 5
-13 -10 -17 -10 -17 -1 0 9 -3 10 -14 1 -11 -9 -15 -8 -20 4 -3 9 -2 13 4 10
6 -3 10 -4 10 -1 0 3 -9 10 -20 16 -16 9 -19 8 -14 -7 3 -10 -1 -7 -9 6 -10
16 -16 20 -21 12 -6 -8 -12 -9 -20 -2 -7 6 -17 7 -21 3 -5 -4 -5 -1 -1 6 6 10
11 10 22 1 10 -8 14 -8 14 0 0 13 -44 25 -65 17 -8 -3 -14 -2 -13 2 2 13 -14
42 -24 42 -5 0 -7 -4 -4 -9 7 -10 -9 -8 -37 4 -10 4 -16 13 -13 21 3 7 -2 18
-10 24 -8 7 -14 9 -14 5 0 -4 -6 -2 -13 4 -10 8 -14 7 -14 -3 0 -8 8 -13 18
-11 10 2 21 0 24 -5 3 -5 -8 -8 -25 -8 -19 1 -30 6 -30 15 0 8 -8 22 -17 31
-16 16 -16 16 -10 0 3 -10 2 -18 -3 -18 -6 0 -10 7 -10 15 0 8 -6 16 -12 17
-7 0 -22 2 -33 3 -11 1 -28 5 -37 9 -9 4 -22 5 -27 1 -6 -3 -8 0 -5 8 3 8 1
18 -5 21 -6 4 -8 14 -5 24 4 10 3 13 -3 6 -4 -6 -16 -10 -26 -8 -13 2 -17 -2
-13 -12 3 -9 1 -12 -4 -9 -6 3 -10 13 -10 21 0 10 -8 14 -22 13 -27 -4 -48 7
-48 24 0 7 4 6 11 -3 9 -12 10 -12 7 -1 -6 21 -28 26 -28 6 0 -9 -5 -13 -10
-10 -6 4 -8 11 -5 16 8 12 -18 12 -31 -1 -7 -7 -11 -6 -11 4 0 8 4 13 9 10 4
-3 8 0 8 5 0 13 -17 14 -24 2 -7 -10 -25 -9 -44 3 -10 6 -10 11 -1 22 16 19 4
18 -15 -2 -9 -8 -16 -11 -16 -5 0 6 -7 11 -15 11 -8 0 -15 4 -15 10 0 5 -6 7
-14 4 -8 -3 -17 0 -22 7 -5 8 -3 10 6 4 8 -5 11 -4 7 3 -4 5 -16 8 -27 5 -15
-4 -20 0 -21 13 0 16 -2 15 -9 -3 -12 -28 -20 -30 -13 -3 4 14 0 20 -11 20
-10 0 -14 -4 -11 -10 3 -5 1 -10 -5 -10 -7 0 -9 8 -5 23 6 18 5 20 -6 10 -15
-15 -33 -17 -25 -4 3 5 -1 12 -10 15 -10 4 -13 2 -9 -7 4 -6 0 -4 -8 6 -15 18
-16 18 -20 -5 l-4 -23 -2 23 c-1 18 -6 22 -26 18 -13 -3 -27 0 -31 5 -3 5 -10
7 -15 4 -5 -4 -9 1 -9 9 0 8 -5 18 -12 22 -8 5 -9 2 -4 -11 5 -15 4 -16 -9 -5
-8 7 -15 9 -15 4 -1 -5 -8 2 -16 16 -8 14 -13 17 -10 8 3 -10 1 -20 -4 -23 -6
-4 -10 6 -11 22 0 28 0 28 -10 4 -8 -19 -12 -21 -24 -11 -8 7 -15 9 -15 5 0
-5 -11 4 -24 20 -16 19 -26 23 -31 15 -4 -6 -16 -10 -26 -7 -10 3 -20 0 -23
-7 -3 -6 -3 -1 0 11 4 17 2 21 -9 17 -7 -2 -20 2 -27 11 -14 17 -30 20 -30 4
0 -5 4 -8 9 -4 5 3 12 1 15 -4 7 -10 -20 -9 -30 2 -4 4 -13 2 -21 -5 -11 -9
-12 -7 -7 7 5 13 4 16 -4 11 -17 -10 -53 -16 -48 -8 2 4 -3 16 -11 27 -15 20
-15 20 -9 -2 4 -12 2 -24 -4 -28 -6 -4 -10 -3 -9 2 1 4 1 15 0 23 -1 13 -2 13
-11 0 -8 -12 -10 -12 -10 -1 0 10 -8 12 -30 8 -16 -4 -32 -2 -35 3 -3 5 0 7 8
4 8 -3 17 -1 21 4 6 10 -24 9 -42 -2 -14 -9 -16 5 -2 22 7 9 7 9 -2 2 -16 -13
-58 -13 -58 0 0 6 -5 10 -11 10 -5 0 -7 -4 -4 -10 3 -5 0 -10 -8 -10 -8 0 -18
10 -24 22 -8 19 -10 20 -16 4 -4 -10 -3 -15 3 -11 6 3 10 2 10 -3 0 -13 -49
-12 -57 1 -3 5 -1 7 4 4 6 -4 17 1 24 10 12 15 12 16 -1 8 -8 -5 -25 -10 -37
-11 -12 0 -28 -6 -36 -12 -14 -12 -27 -6 -27 12 0 6 5 4 10 -4 8 -13 10 -12
10 3 0 23 -16 22 -33 -4 l-15 -21 -7 22 c-5 15 -12 19 -27 14 -16 -5 -19 -3
-13 7 5 8 -2 5 -15 -6 -13 -11 -20 -14 -16 -7 4 7 1 12 -8 12 -9 0 -16 6 -16
13 0 8 -4 7 -11 -3 -8 -11 -12 -12 -15 -3 -4 10 -8 10 -19 0 -7 -7 -11 -15 -9
-18 2 -3 -7 -6 -19 -5 -16 1 -21 7 -19 21 2 18 2 19 -8 2 -6 -9 -16 -14 -22
-11 -6 4 -24 7 -39 6 -16 0 -29 5 -29 11 0 8 -3 7 -9 -1 -5 -8 -20 -15 -35
-15 -14 -1 -26 -6 -26 -11 0 -6 -7 -1 -16 10 -8 10 -13 14 -10 7 9 -16 -24
-10 -35 8 -7 12 -9 11 -9 -3 0 -9 -5 -20 -12 -24 -7 -4 -8 -3 -4 4 4 7 1 12
-8 12 -8 0 -16 5 -18 12 -3 9 -6 9 -12 0z m18 -20 c3 -5 -1 -9 -9 -9 -8 0 -15
4 -15 9 0 4 4 8 9 8 6 0 12 -4 15 -8z m370 -3 c3 -3 -4 -5 -14 -6 -11 -1 -22
2 -24 6 -5 8 30 8 38 0z m-519 -19 c3 -5 1 -10 -4 -10 -6 0 -11 5 -11 10 0 6
2 10 4 10 3 0 8 -4 11 -10z m825 -20 c0 -5 -5 -10 -11 -10 -5 0 -7 5 -4 10 3
6 8 10 11 10 2 0 4 -4 4 -10z m40 -6 c0 -8 -19 -13 -24 -6 -3 5 1 9 9 9 8 0
15 -2 15 -3z m-1557 -229 c-3 -9 -8 -14 -10 -11 -3 3 -2 9 2 15 9 16 15 13 8
-4z m4332 -45 c3 -5 1 -10 -4 -10 -6 0 -11 5 -11 10 0 6 2 10 4 10 3 0 8 -4
11 -10z m-4421 -19 c3 -5 -1 -11 -9 -14 -9 -4 -12 -1 -8 9 6 16 10 17 17 5z
m2772 -77 c1 -9 0 -13 -4 -10 -3 4 -7 14 -8 22 -1 9 0 13 4 10 3 -4 7 -14 8
-22z m1587 -39 c-3 -9 -8 -14 -10 -11 -3 3 -2 9 2 15 9 16 15 13 8 -4z m-1465
-20 c-3 -3 -9 2 -12 12 -6 14 -5 15 5 6 7 -7 10 -15 7 -18z m-3040 -19 c-7 -8
-15 -12 -17 -11 -5 6 10 25 20 25 5 0 4 -6 -3 -14z m4302 -156 c0 -5 -8 -10
-17 -10 -15 0 -16 2 -3 10 19 12 20 12 20 0z m-795 -40 c3 -5 1 -10 -4 -10 -6
0 -11 5 -11 10 0 6 2 10 4 10 3 0 8 -4 11 -10z m695 -10 c0 -5 -5 -10 -11 -10
-5 0 -7 5 -4 10 3 6 8 10 11 10 2 0 4 -4 4 -10z m-596 -49 c-2 -3 -12 3 -22
13 -16 17 -16 18 5 5 12 -7 20 -15 17 -18z m489 -12 c-8 -8 -13 -7 -18 2 -5 8
-4 10 3 5 7 -4 12 -2 12 5 0 7 3 9 7 6 4 -4 2 -12 -4 -18z m-393 -19 c0 -5 -2
-10 -4 -10 -3 0 -8 5 -11 10 -3 6 -1 10 4 10 6 0 11 -4 11 -10z m196 -13 c4
-3 -4 -4 -16 -2 -12 2 -25 7 -28 10 -3 3 4 4 16 2 12 -2 24 -6 28 -10z m1253
-203 c-15 -18 -22 -13 -13 10 3 9 10 13 16 10 5 -3 4 -12 -3 -20z m-5519 -148
c0 -2 -7 -7 -16 -10 -8 -3 -12 -2 -9 4 6 10 25 14 25 6z m-112 -361 c-3 -3 -9
2 -12 12 -6 14 -5 15 5 6 7 -7 10 -15 7 -18z m5775 2 c3 -8 -1 -14 -8 -14 -7
0 -11 6 -8 14 3 7 6 13 8 13 2 0 5 -6 8 -13z m-5796 -133 c-3 -3 -12 -4 -19
-1 -8 3 -5 6 6 6 11 1 17 -2 13 -5z m5810 -96 c2 -12 1 -19 -3 -16 -3 3 -6 12
-8 20 -1 7 -5 20 -10 28 -7 12 -6 13 4 3 8 -7 15 -23 17 -35z m-3663 -6 c3 -5
-1 -9 -9 -9 -8 0 -12 4 -9 9 3 4 7 8 9 8 2 0 6 -4 9 -8z m-460 -17 c-4 -8 -10
-12 -15 -9 -6 3 -16 0 -24 -6 -11 -10 -15 -10 -15 -1 0 7 -4 10 -9 6 -5 -3
-12 -1 -15 4 -4 5 2 8 11 7 14 -2 47 4 70 13 1 1 0 -6 -3 -14z m720 -51 c5
-14 4 -15 -9 -4 -17 14 -19 20 -6 20 5 0 12 -7 15 -16z m-1151 -18 c6 -15 -17
-16 -30 -1 -4 4 -2 5 5 1 6 -4 12 -2 12 3 0 15 7 14 13 -3z m1850 -239 c3 -8
-1 -14 -8 -14 -7 0 -11 6 -8 14 3 7 6 13 8 13 2 0 5 -6 8 -13z m57 -37 c0 -5
-2 -10 -4 -10 -3 0 -8 5 -11 10 -3 6 -1 10 4 10 6 0 11 -4 11 -10z m25 -10 c3
-5 1 -10 -4 -10 -6 0 -11 5 -11 10 0 6 2 10 4 10 3 0 8 -4 11 -10z m-3315
-190 c0 -5 -7 -7 -15 -4 -8 4 -15 8 -15 10 0 2 7 4 15 4 8 0 15 -4 15 -10z
m5687 -126 c-9 -17 -17 -23 -21 -15 -4 6 -3 11 3 11 5 0 13 9 16 21 4 11 9 18
12 16 2 -3 -2 -18 -10 -33z m-1790 -26 c-3 -8 -6 -5 -6 6 -1 11 2 17 5 13 3
-3 4 -12 1 -19z m44 -15 c13 -15 12 -15 -8 -4 -24 12 -29 21 -14 21 5 0 15 -7
22 -17z m99 -47 c0 -2 -7 -7 -16 -10 -8 -3 -12 -2 -9 4 6 10 25 14 25 6z
m1060 -290 c0 -2 -8 -10 -17 -17 -16 -13 -17 -12 -4 4 13 16 21 21 21 13z
m-40 -15 c0 -5 -7 -12 -16 -15 -14 -5 -15 -4 -4 9 14 17 20 19 20 6z"/>
<path d="M5350 3560 c0 -5 5 -10 11 -10 5 0 7 5 4 10 -3 6 -8 10 -11 10 -2 0
-4 -4 -4 -10z"/>
<path d="M1300 3541 c0 -6 4 -13 10 -16 6 -3 7 1 4 9 -7 18 -14 21 -14 7z"/>
<path d="M2671 3543 c-2 -20 16 -24 30 -5 13 15 12 16 -3 4 -13 -10 -17 -10
-21 0 -4 9 -6 9 -6 1z"/>
<path d="M1223 3493 c0 -9 4 -10 14 -2 7 6 13 12 13 14 0 1 -6 2 -13 2 -8 0
-14 -6 -14 -14z"/>
<path d="M2835 3500 c-3 -5 -1 -10 4 -10 6 0 11 5 11 10 0 6 -2 10 -4 10 -3 0
-8 -4 -11 -10z"/>
<path d="M2901 3499 c0 -9 10 -24 22 -32 19 -12 24 -13 24 -2 0 8 -3 14 -6 13
-20 -2 -30 4 -34 20 -4 14 -5 15 -6 1z"/>
<path d="M3070 3426 c14 -14 37 -15 37 -2 0 6 -11 11 -23 11 -14 0 -19 -4 -14
-9z"/>
<path d="M5656 3385 c4 -8 11 -15 16 -15 6 0 5 6 -2 15 -7 8 -14 15 -16 15 -2
0 -1 -7 2 -15z"/>
<path d="M3354 3328 c-4 -6 -3 -8 4 -4 5 3 12 1 14 -6 3 -8 6 -9 11 -1 4 6 0
13 -8 17 -8 3 -17 0 -21 -6z"/>
<path d="M895 3300 c-4 -6 -11 -7 -17 -4 -7 4 -8 2 -4 -5 6 -9 11 -9 22 0 14
11 18 19 10 19 -3 0 -8 -5 -11 -10z"/>
<path d="M3420 3299 c0 -5 -6 -7 -12 -3 -7 4 -9 3 -5 -1 13 -15 36 -14 30 1
-6 17 -13 18 -13 3z"/>
<path d="M3545 3240 c-3 -6 1 -7 9 -4 18 7 21 14 7 14 -6 0 -13 -4 -16 -10z"/>
<path d="M3694 3179 c1 -7 10 -13 19 -15 9 -1 15 2 11 7 -3 5 -9 7 -14 4 -4
-3 -11 0 -13 5 -3 6 -4 5 -3 -1z"/>
<path d="M7570 3106 c0 -2 7 -7 16 -10 8 -3 12 -2 9 4 -6 10 -25 14 -25 6z"/>
<path d="M3895 3070 c3 -5 8 -10 11 -10 2 0 4 5 4 10 0 6 -5 10 -11 10 -5 0
-7 -4 -4 -10z"/>
<path d="M3956 3055 c4 -8 8 -15 10 -15 2 0 4 7 4 15 0 8 -4 15 -10 15 -5 0
-7 -7 -4 -15z"/>
<path d="M624 3032 c3 -5 0 -13 -6 -15 -9 -4 -10 -6 -1 -6 17 -1 25 16 12 25
-7 4 -9 3 -5 -4z"/>
<path d="M585 2980 c3 -6 1 -10 -6 -10 -7 0 -10 -3 -6 -6 3 -3 13 -2 22 4 16
8 16 9 1 15 -10 4 -15 3 -11 -3z"/>
<path d="M5705 2961 c-6 -11 13 -26 22 -17 4 3 1 6 -6 6 -7 0 -9 5 -6 10 3 6
4 10 1 10 -3 0 -7 -4 -11 -9z"/>
<path d="M521 2903 c-1 -17 16 -25 25 -12 4 7 3 9 -4 5 -5 -3 -13 0 -15 6 -4
9 -6 10 -6 1z"/>
<path d="M4271 2894 c0 -11 3 -14 6 -6 3 7 2 16 -1 19 -3 4 -6 -2 -5 -13z"/>
<path d="M5747 2869 c7 -7 15 -10 18 -7 3 3 -2 9 -12 12 -14 6 -15 5 -6 -5z"/>
<path d="M4435 2861 c-3 -5 -2 -12 3 -15 5 -3 9 1 9 9 0 17 -3 19 -12 6z"/>
<path d="M4540 2836 c7 -7 13 -7 20 0 6 6 3 10 -10 10 -13 0 -16 -4 -10 -10z"/>
<path d="M4627 2829 c7 -7 15 -10 18 -7 3 3 -2 9 -12 12 -14 6 -15 5 -6 -5z"/>
<path d="M4510 2819 c0 -5 5 -7 10 -4 6 3 10 8 10 11 0 2 -4 4 -10 4 -5 0 -10
-5 -10 -11z"/>
<path d="M6118 2393 c6 -2 9 -10 6 -15 -4 -7 -2 -8 5 -4 13 9 5 26 -12 25 -9
0 -8 -2 1 -6z"/>
<path d="M5956 2378 c3 -5 10 -6 15 -3 13 9 11 12 -6 12 -8 0 -12 -4 -9 -9z"/>
<path d="M7267 2229 c7 -7 15 -10 18 -7 3 3 -2 9 -12 12 -14 6 -15 5 -6 -5z"/>
<path d="M7170 2059 c0 -5 5 -7 10 -4 6 3 10 8 10 11 0 2 -4 4 -10 4 -5 0 -10
-5 -10 -11z"/>
<path d="M2070 1841 c0 -6 4 -13 10 -16 6 -3 7 1 4 9 -7 18 -14 21 -14 7z"/>
<path d="M1725 1821 c-3 -5 -2 -12 3 -15 5 -3 9 1 9 9 0 17 -3 19 -12 6z"/>
<path d="M2415 1820 c-3 -5 -1 -10 4 -10 6 0 11 5 11 10 0 6 -2 10 -4 10 -3 0
-8 -4 -11 -10z"/>
<path d="M1750 1806 c0 -2 7 -7 16 -10 8 -3 12 -2 9 4 -6 10 -25 14 -25 6z"/>
<path d="M6031 1797 c-8 -10 -7 -14 2 -14 8 0 14 6 14 14 0 7 -1 13 -2 13 -2
0 -8 -6 -14 -13z"/>
<path d="M2740 1760 c-9 -6 -10 -10 -3 -10 6 0 15 5 18 10 8 12 4 12 -15 0z"/>
<path d="M1400 1745 c-7 -9 -8 -15 -2 -15 5 0 12 7 16 15 3 8 4 15 2 15 -2 0
-9 -7 -16 -15z"/>
<path d="M7180 1751 c0 -8 -8 -11 -19 -8 -15 4 -18 0 -16 -20 2 -23 2 -23 -18
-6 -19 18 -20 17 -9 -3 10 -18 7 -25 -17 -47 -16 -14 -33 -22 -37 -19 -5 4 -2
-1 5 -11 12 -15 12 -17 -2 -12 -8 4 -18 1 -23 -6 -4 -8 -3 -10 4 -5 8 5 10 2
6 -9 -5 -13 -9 -13 -22 -3 -14 12 -14 10 -2 -12 12 -22 12 -24 -2 -12 -13 10
-15 9 -13 -13 3 -22 1 -24 -18 -13 -20 10 -21 10 -8 -5 16 -20 1 -23 -18 -4
-11 10 -12 9 -5 -3 5 -8 10 -24 12 -35 3 -20 3 -20 -13 0 -8 11 -15 16 -14 10
3 -24 -2 -36 -13 -29 -8 5 -9 2 -5 -9 3 -9 1 -19 -5 -23 -7 -5 -8 -2 -4 7 4 8
2 7 -6 -2 -13 -16 -19 -19 -40 -19 -10 0 -9 -3 1 -9 9 -6 10 -11 2 -15 -6 -4
-16 -4 -21 -1 -6 4 -10 3 -9 -2 1 -4 1 -17 0 -28 l-2 -20 -15 20 c-16 20 -16
19 -9 -4 5 -18 4 -22 -6 -16 -9 6 -11 4 -6 -7 8 -22 -3 -30 -20 -16 -11 9 -13
8 -11 -3 2 -9 -4 -13 -17 -12 -11 1 -14 0 -7 -3 6 -3 12 -13 12 -22 0 -15 -2
-15 -10 -2 -7 12 -12 12 -22 2 -9 -9 -9 -12 0 -12 7 0 12 -5 12 -11 0 -5 -4
-8 -9 -4 -6 3 -15 -3 -21 -12 -9 -15 -10 -14 -5 7 l6 25 -14 -23 c-7 -12 -17
-19 -21 -15 -5 4 -3 -3 4 -17 13 -24 12 -24 -5 -10 -17 14 -18 13 -12 -2 6
-18 -36 -53 -53 -43 -6 3 -10 -1 -10 -9 0 -8 -9 -20 -20 -26 -11 -6 -18 -15
-15 -20 3 -6 -1 -7 -11 -3 -15 5 -15 7 0 15 9 5 16 13 16 18 0 6 -9 2 -20 -7
-14 -13 -17 -20 -8 -30 8 -11 7 -12 -7 -7 -13 5 -16 4 -11 -4 4 -8 2 -10 -7
-6 -8 3 -18 0 -23 -7 -5 -8 -3 -10 7 -4 12 7 12 6 1 -7 -7 -9 -21 -14 -32 -11
-12 3 -20 0 -20 -6 0 -7 5 -9 12 -5 7 4 8 3 4 -5 -6 -9 -11 -9 -21 -1 -12 10
-13 8 -10 -10 4 -19 2 -20 -11 -9 -13 11 -15 10 -12 -7 2 -14 -2 -18 -16 -16
-12 2 -16 -1 -11 -10 4 -7 1 -7 -7 2 -11 13 -17 11 -43 -14 -16 -16 -24 -26
-17 -22 6 4 12 3 12 -2 0 -15 -28 -22 -34 -9 -3 9 -5 8 -5 -1 -1 -7 -5 -10
-11 -7 -5 3 -7 0 -4 -8 3 -9 -3 -17 -16 -20 -14 -4 -19 -10 -14 -18 4 -7 3
-10 -4 -5 -6 3 -14 2 -17 -4 -5 -8 -12 -7 -22 2 -14 11 -15 10 -9 -9 4 -12 2
-24 -3 -28 -6 -3 -8 0 -5 8 3 8 -3 20 -13 28 -16 13 -17 12 -4 -3 11 -15 11
-19 -2 -24 -9 -3 -22 -2 -29 2 -10 6 -11 5 -1 -7 10 -12 7 -15 -18 -17 -18 -1
-29 3 -30 10 0 7 -4 4 -8 -7 -5 -11 -14 -20 -22 -20 -8 -1 -13 -6 -12 -13 2
-7 -1 -12 -7 -12 -5 0 -7 -8 -4 -17 5 -16 3 -15 -10 1 -9 11 -18 17 -21 15 -3
-3 5 -15 16 -28 14 -15 27 -20 41 -15 15 5 19 3 13 -7 -5 -8 -5 -11 0 -7 4 4
15 2 23 -5 13 -11 14 -9 2 13 -7 14 -9 22 -5 18 5 -4 15 -2 24 5 14 10 14 10
3 -4 -10 -14 -10 -18 3 -23 9 -3 13 -2 10 4 -3 6 1 10 10 10 10 0 13 -5 9 -12
-4 -7 -3 -8 5 -4 8 6 9 12 2 20 -8 9 -7 13 4 13 8 0 12 -4 9 -9 -8 -13 10 -10
25 5 10 8 12 8 7 0 -4 -7 1 -12 11 -13 63 -3 73 -6 68 -19 -4 -10 2 -9 21 4
24 15 26 15 21 2 -3 -9 -1 -19 6 -23 7 -4 9 -4 5 1 -10 11 23 34 39 28 7 -3
10 -10 7 -15 -4 -6 -10 -5 -15 3 -6 10 -9 10 -9 2 0 -17 17 -25 26 -12 4 8 9
7 16 -2 6 -10 7 -7 3 9 -4 13 -2 22 5 22 6 0 8 -5 4 -11 -4 -7 5 -9 30 -6 29
4 43 0 65 -19 25 -21 30 -22 35 -8 4 9 4 19 1 22 -3 3 -5 0 -5 -6 0 -7 -5 -12
-11 -12 -5 0 -7 5 -3 12 5 7 3 8 -6 3 -9 -5 -11 -4 -6 4 4 6 12 9 17 6 5 -4 9
0 9 7 0 8 5 6 11 -5 8 -14 14 -16 25 -6 8 6 14 8 14 3 0 -5 4 -3 9 5 6 9 11
10 15 2 4 -6 3 -11 -1 -11 -5 0 -9 -10 -10 -22 -2 -23 -2 -23 17 2 11 14 20
29 20 35 0 5 5 4 12 -3 9 -9 9 -15 -1 -24 -11 -11 -12 -10 -6 1 5 9 4 12 -3 7
-15 -9 -15 -11 5 -27 14 -12 16 -12 8 0 -6 11 -4 13 8 8 12 -5 17 -1 17 13 0
11 4 20 9 20 4 0 7 -11 6 -23 -2 -19 2 -24 19 -23 11 1 27 5 34 9 6 5 12 4 12
-1 0 -5 14 -9 30 -9 20 0 26 3 18 9 -9 5 -6 8 9 8 12 0 26 8 32 18 9 15 10 15
8 -5 0 -12 -4 -20 -8 -17 -4 2 -10 1 -12 -3 -3 -5 21 -8 53 -8 53 0 57 1 44
16 -12 14 -12 16 1 16 8 0 13 -3 11 -6 -2 -3 1 -11 8 -16 13 -13 175 -14 194
-2 7 5 12 4 12 -2 0 -17 41 -6 57 15 14 18 15 18 8 -6 -7 -23 -7 -24 10 -10
14 11 17 12 11 1 -6 -9 -5 -12 5 -9 8 3 13 12 11 19 -1 9 2 8 11 -3 14 -17 32
-19 55 -5 7 5 12 3 12 -4 0 -8 5 -7 17 2 14 11 15 12 9 1 -7 -11 -1 -13 30 -8
22 4 44 7 51 8 7 1 10 4 8 8 -6 9 -46 7 -65 -4 -12 -7 -13 -6 -3 4 7 8 23 15
35 17 23 4 40 22 32 34 -2 4 -13 9 -24 12 -11 3 -18 1 -15 -3 3 -5 1 -11 -4
-14 -5 -4 -8 1 -7 10 1 8 8 19 15 24 9 5 10 10 2 14 -6 4 -11 2 -11 -3 0 -6
-5 -11 -11 -11 -6 0 -8 7 -5 16 4 11 2 15 -8 11 -10 -4 -12 0 -9 14 3 11 0 19
-6 19 -7 0 -9 -4 -6 -10 10 -16 -1 -11 -16 7 -8 9 -9 14 -3 10 7 -4 14 2 17
13 4 17 2 18 -16 8 -21 -11 -21 -10 -5 14 17 25 16 26 -4 20 -18 -4 -20 -2
-15 17 6 25 -1 53 -12 47 -4 -3 -13 5 -20 17 -11 18 -11 20 0 10 26 -25 29
-13 4 13 -14 14 -23 29 -20 32 3 4 10 0 15 -8 7 -11 9 -9 7 8 0 12 -5 22 -9
22 -4 0 -8 5 -8 11 0 6 -7 17 -15 26 -14 14 -14 17 1 35 16 17 17 18 1 12 -22
-8 -22 5 1 22 16 12 16 12 -3 11 -15 -2 -20 4 -19 21 0 15 -5 22 -18 22 -10 0
-18 5 -18 11 0 5 4 8 9 5 5 -3 14 1 21 9 11 13 10 14 -3 10 -8 -4 -18 -1 -23
6 -4 7 -3 10 3 6 6 -4 14 0 17 8 4 11 0 15 -11 13 -8 -2 -17 5 -18 14 -2 10 2
15 10 12 7 -3 16 0 21 7 4 7 3 10 -2 6 -13 -8 -26 2 -43 33 -13 22 -13 24 1
12 13 -10 17 -10 22 3 3 9 2 14 -2 12 -4 -3 -14 2 -22 11 -13 14 -12 15 3 9 9
-3 17 -2 17 3 0 6 -8 10 -17 11 -16 0 -16 1 1 8 17 7 17 8 2 24 -10 9 -13 17
-8 17 15 0 23 28 10 36 -6 4 -8 3 -4 -4 3 -6 3 -13 -2 -16 -16 -9 -9 29 7 42
14 11 14 11 -1 6 -19 -6 -25 10 -8 21 6 3 10 12 10 18 0 7 -4 6 -10 -3 -7 -11
-10 -11 -10 -2 0 7 -4 11 -9 8 -5 -4 -8 2 -6 11 2 10 4 22 4 26 1 5 6 5 12 1
8 -4 7 -9 -2 -15 -10 -6 -10 -9 -2 -9 16 0 26 17 13 25 -6 4 -8 11 -5 16 3 5
-2 6 -12 3 -10 -3 -14 -2 -8 3 16 13 34 50 28 57 -3 3 -12 1 -20 -5 -16 -14
-18 2 -1 19 6 6 9 15 5 19 -4 3 -7 1 -7 -6z m-272 -336 c-3 -3 -9 2 -12 12 -6
14 -5 15 5 6 7 -7 10 -15 7 -18z m345 -230 c-3 -9 -8 -14 -10 -11 -3 3 -2 9 2
15 9 16 15 13 8 -4z m31 -91 c3 -8 2 -12 -4 -9 -6 3 -10 10 -10 16 0 14 7 11
14 -7z m-918 -109 c-9 -9 -16 -13 -16 -8 0 12 22 34 28 28 2 -2 -3 -11 -12
-20z m-271 -161 c-13 -14 -19 -14 -28 -4 -9 10 -9 11 0 6 6 -3 14 -2 18 4 3 5
11 10 16 10 6 0 3 -7 -6 -16z m-34 -47 c-10 -9 -11 -8 -5 6 3 10 9 15 12 12 3
-3 0 -11 -7 -18z m1394 -7 c-3 -5 -10 -10 -16 -10 -5 0 -9 5 -9 10 0 6 7 10
16 10 8 0 12 -4 9 -10z m-628 -15 c0 -8 -4 -12 -9 -9 -5 3 -6 10 -3 15 9 13
12 11 12 -6z m278 -5 c-3 -5 -1 -10 6 -10 7 0 10 -3 6 -6 -9 -9 -28 6 -22 17
4 5 8 9 11 9 3 0 2 -4 -1 -10z m65 7 c0 -2 -8 -11 -18 -20 -15 -14 -19 -15
-19 -2 0 8 4 12 8 9 4 -2 10 0 14 6 6 10 15 14 15 7z m157 -19 c-3 -8 -6 -5
-6 6 -1 11 2 17 5 13 3 -3 4 -12 1 -19z m-587 0 c0 -9 2 -10 8 -2 4 7 18 10
32 9 36 -4 37 -4 20 -15 -9 -5 -19 -5 -26 1 -8 6 -14 6 -18 0 -5 -8 -18 -8
-44 -2 -2 1 0 6 3 11 9 14 25 12 25 -2z m157 -3 c0 -8 -4 -12 -9 -9 -5 3 -6
10 -3 15 9 13 12 11 12 -6z m27 0 c3 -8 1 -15 -4 -15 -6 0 -10 7 -10 15 0 8 2
15 4 15 2 0 6 -7 10 -15z m96 5 c9 -5 19 -5 27 2 9 7 13 7 13 -1 0 -6 -3 -11
-7 -12 -5 0 -19 -2 -33 -4 -30 -3 -43 3 -35 16 8 11 16 11 35 -1z m287 -12
c-3 -8 -6 -5 -6 6 -1 11 2 17 5 13 3 -3 4 -12 1 -19z"/>
<path d="M2846 1725 c4 -9 9 -14 12 -11 2 3 13 1 23 -5 15 -8 17 -6 13 6 -4 9
-9 14 -12 11 -2 -3 -13 -1 -23 5 -15 8 -17 6 -13 -6z"/>
<path d="M7100 1689 c0 -5 -5 -7 -12 -3 -7 4 -8 3 -4 -5 6 -9 11 -9 22 0 17
14 18 19 4 19 -5 0 -10 -5 -10 -11z"/>
<path d="M1170 1659 c0 -5 5 -7 10 -4 6 3 10 8 10 11 0 2 -4 4 -10 4 -5 0 -10
-5 -10 -11z"/>
<path d="M6009 1665 c-1 -3 -2 -8 -3 -12 -1 -5 -5 -13 -9 -19 -4 -7 -1 -14 6
-17 9 -3 13 2 12 16 -1 12 3 25 9 29 8 5 7 8 -1 8 -7 0 -14 -2 -14 -5z"/>
<path d="M3070 1625 c0 -8 4 -15 10 -15 5 0 7 7 4 15 -4 8 -8 15 -10 15 -2 0
-4 -7 -4 -15z"/>
<path d="M830 1524 c0 -8 5 -12 10 -9 6 4 8 11 5 16 -9 14 -15 11 -15 -7z"/>
<path d="M90 1521 c0 -6 4 -13 10 -16 6 -3 7 1 4 9 -7 18 -14 21 -14 7z"/>
<path d="M3420 1456 c0 -3 9 -10 20 -16 11 -6 20 -8 20 -6 0 3 -9 10 -20 16
-11 6 -20 8 -20 6z"/>
<path d="M7226 1385 c-3 -8 -1 -15 4 -15 6 0 10 7 10 15 0 8 -2 15 -4 15 -2 0
-6 -7 -10 -15z"/>
<path d="M3780 1260 c0 -5 5 -10 11 -10 5 0 7 -5 3 -12 -4 -7 -3 -8 5 -4 9 6
9 11 0 22 -14 17 -19 18 -19 4z"/>
<path d="M6632 1224 c-8 -9 -9 -14 -2 -14 6 0 8 -5 5 -11 -4 -6 2 -5 14 2 11
8 17 16 13 19 -4 3 -9 8 -12 12 -3 3 -11 0 -18 -8z"/>
<path d="M6295 1157 c-15 -12 -16 -15 -4 -22 8 -5 11 -5 7 0 -4 4 0 14 10 21
23 18 11 18 -13 1z"/>
<path d="M7275 1140 c3 -5 8 -10 11 -10 2 0 4 5 4 10 0 6 -5 10 -11 10 -5 0
-7 -4 -4 -10z"/>
<path d="M10 1100 c0 -5 5 -10 10 -10 6 0 10 5 10 10 0 6 -4 10 -10 10 -5 0
-10 -4 -10 -10z"/>
<path d="M15 1070 c3 -5 -1 -11 -7 -14 -7 -2 -2 -3 12 -2 29 3 34 18 7 22 -9
1 -15 -1 -12 -6z"/>
<path d="M15 1032 c-10 -7 -18 -32 -10 -32 2 0 9 9 15 20 12 22 11 24 -5 12z"/>
<path d="M38 959 c6 -9 8 -19 4 -24 -4 -4 5 0 19 9 14 9 29 13 34 9 4 -5 5 -2
1 5 -5 8 -13 9 -25 2 -12 -6 -22 -5 -31 3 -12 10 -12 9 -2 -4z"/>
<path d="M6230 920 c-6 -11 -8 -20 -6 -20 3 0 10 9 16 20 6 11 8 20 6 20 -3 0
-10 -9 -16 -20z"/>
<path d="M4350 919 c0 -5 5 -7 10 -4 6 3 10 8 10 11 0 2 -4 4 -10 4 -5 0 -10
-5 -10 -11z"/>
<path d="M4403 904 c0 -9 4 -11 12 -4 7 5 14 9 16 7 2 -1 3 0 1 2 -7 11 -29 7
-29 -5z"/>
<path d="M5675 840 c3 -5 8 -10 11 -10 2 0 4 5 4 10 0 6 -5 10 -11 10 -5 0 -7
-4 -4 -10z"/>
<path d="M4800 760 c-9 -6 -10 -10 -3 -10 6 0 15 5 18 10 8 12 4 12 -15 0z"/>
<path d="M6193 756 c-3 -6 -3 -8 2 -4 4 4 15 3 24 -2 10 -5 23 -5 32 1 7 5 10
9 4 10 -5 0 -20 2 -33 3 -13 2 -26 -2 -29 -8z"/>
<path d="M4925 740 c-2 -3 7 -7 21 -8 13 -1 24 2 24 6 0 9 -40 11 -45 2z"/>
<path d="M6476 733 c-6 -14 -5 -15 5 -6 7 7 10 15 7 18 -3 3 -9 -2 -12 -12z"/>
<path d="M6581 733 c-7 -8 -11 -16 -8 -19 2 -2 10 2 17 11 17 20 9 27 -9 8z"/>
</g>
</svg>
